<?xml version="1.0" ?><svg xmlns="http://www.w3.org/2000/svg" width="263.93326mm" height="275.22244mm" viewBox="0 0 263.93326 275.22244">
    <path d="m -2918.877,14956.262 -50.0359,67.271 -30.044,-40.349 -12.3153,44.807 c 0,0 -16.0668,10.89 -26.1244,23.777 -10.0579,12.888 -30.2571,55.992 -41.0396,115.634 -10.7821,59.641 9.1117,90.886 50.7493,104.693 41.6375,13.808 97.2022,-43.398 97.2022,-43.398 0,0 21.8706,148.055 30.2238,174.75 8.3531,26.695 73.6698,166.858 98.8141,196.775 25.1446,29.916 91.2479,77.32 125.6405,90.092 34.3922,12.772 142.4641,27.595 175.3227,22.84 32.858,-4.756 100.1928,-37.74 157.3857,-33.521 57.1933,4.219 82.6222,57.674 86.1171,99.174 3.4946,41.499 -36.9458,63.822 -36.9458,63.822 l -31.2852,9.047 -17.2627,43.303 -41.2923,-12.658 -41.6798,52.698 -34.9072,-38.389 -40.1356,33.986 -29.1624,-30.689 -30.3865,18.835 -25.7369,4.408 c 0,0 14.9145,20.558 38.9507,32.908 24.0364,12.35 100.5775,20.75 186.0261,4.757 85.4485,-15.994 100.214,-56.742 150.3325,-100.044 50.1184,-43.303 57.6184,-153.07 53.9108,-167.146 -3.7079,-14.077 -16.746,-30.876 -16.746,-30.876 l 7.7666,-72.543 -22.3337,-2.382 6.0932,-49.822 -60.4308,-8.205 -6.1717,-42.78 -54.6354,7.48 -11.894,-30.185 -45.0885,12.232 -117.155,-14.304 c 0,0 12.4003,-25.007 23.0974,-31.566 10.6971,-6.558 39.9783,3.375 39.9783,3.375 0,0 1.4482,-39.618 18.2397,-52.237 16.7911,-12.619 62.3065,-4.105 62.3065,-4.105 0,0 -5.2873,-16.761 -2.4316,-25.467 2.8552,-8.707 7.9702,-18.604 22.4178,-24.434 14.4475,-5.83 11.7646,-12.238 9.1648,-20.599 -2.5995,-8.361 -56.4132,-38.257 -78.8726,-41.977 -22.4597,-3.721 -99.6451,13.497 -105.6541,20.362 -6.0092,6.866 -30.3643,106.794 -30.3643,106.794 0,0 -12.3624,17.297 -14.7917,18.218 -2.4293,0.92 -41.2528,39.085 -41.2528,39.085 l -10.1422,-15.724 27.3542,-76.772 c 0,0 -13.8089,-19.483 -14.1068,-32.178 -0.2984,-12.696 27.9158,-32.369 27.9158,-32.369 0,0 -10.6111,-3.108 -20.4131,-9.053 -9.8017,-5.945 -5.1122,-24.051 0.5561,-36.401 5.6682,-12.35 41.8483,-54.079 41.8483,-54.079 0,0 -72.6175,9.014 -86.2125,14.46 -13.595,5.447 -55.9046,35.009 -55.9046,35.009 l 15.9375,75.02 17.813,103.346 -19.9864,16.224 -22.6986,-48.436 -46.9643,22.895 -7.7551,-48.98 -51.1426,11.316 16.5385,-66.355 -0.2818,-14.13 -38.4788,-4.947 21.6485,-54.573 -50.4628,-20.829 25.6302,-54.265 -50.2044,-16.993 31.5377,-52.316 -47.9018,-13.5 c 0,0 29.4045,-74.907 25.4838,-74.639 -3.9207,0.269 -60.7283,23.053 -60.7283,23.053 z" fill="#bd7feb" transform="translate(-62.179688,-40.190086) matrix(0.26458333,0,0,0.26458333,893.96825,-3914.1705)"/>
    <path d="m -2918.877,14956.262 -50.0359,67.271 -30.044,-40.349 -12.3153,44.807 c 0,0 -16.0668,10.89 -26.1244,23.777 -10.0579,12.888 -30.2571,55.992 -41.0396,115.634 -10.7821,59.641 9.1117,90.886 50.7493,104.693 41.6375,13.808 97.2022,-43.398 97.2022,-43.398 0,0 21.8706,148.055 30.2238,174.75 8.3531,26.695 73.6698,166.858 98.8141,196.775 25.1446,29.916 91.2479,77.32 125.6405,90.092 34.3922,12.772 142.4641,27.595 175.3227,22.84 32.858,-4.756 100.1928,-37.74 157.3857,-33.521 57.1933,4.219 82.6222,57.674 86.1171,99.174 3.4946,41.499 -36.9458,63.822 -36.9458,63.822 l -31.2852,9.047 -17.2627,43.303 -41.2923,-12.658 -41.6798,52.698 -34.9072,-38.389 -40.1356,33.986 -29.1624,-30.689 -30.3865,18.835 -25.7369,4.408 c 0,0 14.9145,20.558 38.9507,32.908 24.0364,12.35 100.5775,20.75 186.0261,4.757 85.4485,-15.994 100.214,-56.742 150.3325,-100.044 50.1184,-43.303 57.6184,-153.07 53.9108,-167.146 -3.7079,-14.077 -16.746,-30.876 -16.746,-30.876 l 7.7666,-72.543 -22.3337,-2.382 6.0932,-49.822 -60.4308,-8.205 -6.1717,-42.78 -54.6354,7.48 -11.894,-30.185 -45.0885,12.232 -117.155,-14.304 c 0,0 12.4003,-25.007 23.0974,-31.566 10.6971,-6.558 39.9783,3.375 39.9783,3.375 0,0 1.4482,-39.618 18.2397,-52.237 16.7911,-12.619 62.3065,-4.105 62.3065,-4.105 0,0 -5.2873,-16.761 -2.4316,-25.467 2.8552,-8.707 7.9702,-18.604 22.4178,-24.434 14.4475,-5.83 11.7646,-12.238 9.1648,-20.599 -2.5995,-8.361 -56.4132,-38.257 -78.8726,-41.977 -22.4597,-3.721 -99.6451,13.497 -105.6541,20.362 -6.0092,6.866 -30.3643,106.794 -30.3643,106.794 0,0 -12.3624,17.297 -14.7917,18.218 -2.4293,0.92 -41.2528,39.085 -41.2528,39.085 l -10.1422,-15.724 27.3542,-76.772 c 0,0 -13.8089,-19.483 -14.1068,-32.178 -0.2984,-12.696 27.9158,-32.369 27.9158,-32.369 0,0 -10.6111,-3.108 -20.4131,-9.053 -9.8017,-5.945 -5.1122,-24.051 0.5561,-36.401 5.6682,-12.35 41.8483,-54.079 41.8483,-54.079 0,0 -72.6175,9.014 -86.2125,14.46 -13.595,5.447 -55.9046,35.009 -55.9046,35.009 l 15.9375,75.02 17.813,103.346 -19.9864,16.224 -22.6986,-48.436 -46.9643,22.895 -7.7551,-48.98 -51.1426,11.316 16.5385,-66.355 -0.2818,-14.13 -38.4788,-4.947 21.6485,-54.573 -50.4628,-20.829 25.6302,-54.265 -50.2044,-16.993 31.5377,-52.316 -47.9018,-13.5 c 0,0 29.4045,-74.907 25.4838,-74.639 -3.9207,0.269 -60.7283,23.053 -60.7283,23.053 z" fill="#916ae4" transform="translate(-62.179688,-40.190086) matrix(0.26458333,0,0,0.26458333,893.96825,-3914.1705)"/>
    <path d="m -3011.2723,15019.991 c 0,0 -47.4066,51.884 -67.0468,111.214 -19.6402,59.33 4.3933,125.584 47.1074,141.405 42.7141,15.821 100.7265,-43.912 100.7265,-43.912 0,0 6.8099,113.039 41.6953,227.25 34.8855,114.211 129.5149,195.667 195.3028,228.422 65.7879,32.755 158.6255,49.106 213.4394,23.328 54.8139,-25.778 152.4456,-29.261 188.8418,-15.912 36.3963,13.35 33.7871,100.986 33.7871,100.986 l 23.8985,1.357 c 0,0 -0.5262,-18.526 9.3379,-45.963 9.8641,-27.437 22,-4 22,-4 0,0 14.8815,-75.397 13.6054,-115.91 -1.2761,-40.513 -39.3852,-61.423 -107.9199,-110 -68.5347,-48.577 -216.1152,-48.816 -216.1152,-48.816 l -17.2324,23.353 c 0,0 -27.8812,12.856 -50.543,8.53 -22.6618,-4.326 -22.6616,-15.945 -6.043,-18.293 16.6187,-2.349 31.5899,-19.901 31.5899,-19.901 0,0 -76.3632,-1.73 -132.125,-27.564 -55.7618,-25.833 -26.0956,8.158 -92.2481,-61.578 -66.1525,-69.736 -69.6005,-225.188 -91.3828,-255.963 -21.7823,-30.775 -38.0438,-62.173 -64.0019,-77.377 -25.9581,-15.203 -76.3633,37.082 -76.3633,37.082 z m 837.9707,642.777 c 0,0 -8.4491,83.42 -43.6113,127.539 -35.1622,44.119 -52.7299,78.681 -137.1191,124.543 -40.6073,22.068 -105.4872,31.004 -136.4707,28.803 -30.9834,-2.201 -95.2715,-20.483 -95.2715,-20.483 -12.0041,29.14 42.4774,34.44 112.2207,49.09 69.7433,14.65 110.1442,-5.676 206.1523,-55.39 96.008,-49.715 107.9328,-153.914 111.5,-194.823 3.5671,-40.908 -17.4004,-59.279 -17.4004,-59.279 z" fill="#cea6f1" transform="translate(-62.179688,-40.190086) matrix(0.26458333,0,0,0.26458333,893.96825,-3914.1705)"/>
    <path d="m -3043.7141,15292.391 c -3.6746,-0.167 -8.283,2.187 -17.0439,9.254 -12.7428,10.279 -14.6583,21.249 -22.6705,57.033 -8.0124,35.785 -19.0953,43.878 -31.1561,52.277 -14.6094,8.953 8.5584,18.622 8.5584,18.622 0,0 -16.7928,18.567 -27.1915,40.736 -10.398,22.169 8.2273,17.718 8.2273,17.718 0,0 5.4986,33.674 4.6889,60.829 -0.8099,27.155 -7.3339,48.829 -7.3339,48.829 0,0 41.3412,-21.441 66.8268,-47.369 25.4853,-25.927 44.8426,-90.884 45.9085,-113.628 1.0652,-22.744 -25.4014,-76.708 -25.9558,-96.192 -0.554,-19.484 6.9469,-43.611 1.8756,-46.526 -1.5849,-0.911 -3.0639,-1.508 -4.7338,-1.583 z m 48.1603,15.213 c -7.7838,-0.02 -11.9414,6.754 -14.6123,16.336 -3.4183,12.265 22.7381,53.809 22.7381,53.809 15.9912,-11.108 10.6901,-17.819 10.6249,-30.353 -0.069,-12.533 16.7241,-3.531 12.9386,-10.675 -3.7859,-7.144 -11.4749,-22.136 -24.2542,-27.422 -2.7953,-1.156 -5.2559,-1.691 -7.4351,-1.695 z" fill="#ffd675" transform="translate(-62.179688,-40.190086) matrix(0.26458333,0,0,0.26458333,893.96825,-3914.1705)"/>
    <path d="m -2473.5489,15984.261 c -36.5081,-3.557 -72.0716,-13.119 -94.797,-25.487 -19.4856,-10.606 -37.4643,-28.516 -37.4643,-37.321 0,-7.159 19.9978,-14.435 35.9061,-13.065 9.5232,0.821 17.1723,-1.478 25.565,-7.683 14.7388,-10.897 25.8312,-8.779 36.2342,6.919 l 7.6142,11.49 11.5541,-10.915 c 16.9194,-15.985 26.6784,-20.122 37.6352,-15.956 11.8356,4.499 25.6395,21.862 25.7844,32.431 0.065,5.082 5.2994,-1.619 14.0098,-17.95 7.6442,-14.333 17.2642,-27.861 21.3777,-30.062 9.248,-4.95 31.1146,-1.219 37.4251,6.385 8.0498,9.699 11.4168,6.277 11.4168,-11.603 0,-21.701 9.6306,-32.586 28.8315,-32.586 11.6614,0 15.1692,-2.373 25.7949,-17.447 18.3728,-26.066 22.7381,-44.33 15.6013,-65.276 -6.4323,-18.878 -31.6343,-47.062 -51.5379,-57.636 -10.1872,-5.412 -20.6858,-6.72 -49.359,-6.146 -30.6933,0.614 -40.6394,2.507 -63.2555,12.036 l -26.8356,11.308 -2.1609,41.454 c -1.1884,22.799 -0.7574,43.093 0.9585,45.096 1.7156,2.003 3.1193,8.432 3.1193,14.287 0,17.046 -12.2272,22.238 -88.1743,37.44 -11.5969,2.321 -24.9667,5.247 -29.7109,6.5 -15.7476,4.163 -9.5478,-8.297 9.5842,-19.261 19.8112,-11.353 11.4047,-10.487 -21.0407,2.168 -11.0452,4.308 -22.69,6.832 -25.8772,5.609 -8.5726,-3.29 -7.0354,-12.976 3.1148,-19.627 16.3045,-10.683 65.4979,-25.39 92.6823,-27.708 14.7596,-1.259 28.1031,-4.185 29.6522,-6.503 1.5491,-2.318 2.8429,-19.318 2.8752,-37.779 l 0.054,-33.563 -39.295,2.468 c -21.6123,1.358 -40.0682,3.146 -41.0131,3.974 -0.9454,0.828 0.3326,13.459 2.8373,28.07 6.4935,37.867 2.7546,46.015 -21.1511,46.093 -10.0676,0.03 -34.5929,3.498 -54.5009,7.699 -36.9079,7.79 -48.5634,6.211 -39.0219,-5.286 4.2667,-5.141 56.8586,-19.671 82.8854,-22.899 6.3256,-0.785 -0.5803,-1.685 -15.3468,-2.001 -16.956,-0.363 -36.7262,2.25 -53.6591,7.092 -32.7382,9.363 -32.5861,9.361 -32.5861,0.472 0,-13.317 60.0468,-30.842 106.6045,-31.112 3.5217,-0.02 4.6619,-4.865 3.8337,-16.289 l -1.1789,-16.259 -19.4602,-2.782 c -37.3713,-5.341 -107.002,-33.202 -141.5536,-56.639 -11.9382,-8.098 -18.5266,-10.013 -29.7464,-8.645 -7.9264,0.966 -15.3235,3.232 -16.4381,5.035 -1.1144,1.804 1.268,9.807 5.2942,17.787 12.4346,24.643 13.6659,31.759 5.4956,31.759 -3.9374,0 -8.9406,1.782 -11.1183,3.959 -10.643,10.643 -26.6354,-10.326 -30.7455,-40.313 -3.9535,-28.843 -9.3989,-19.55 -6.7003,11.435 2.3411,26.879 2.0132,28.752 -5.0324,28.752 -9.8554,0 -15.0747,-12.169 -18.3546,-42.796 -3.6125,-33.734 0.4499,-37.71 38.5295,-37.71 h 28.3943 l -19.8609,-24.919 c -13.1192,-16.461 -22.5948,-24.919 -27.9153,-24.919 -4.4301,0 -17.0591,-4.487 -28.0645,-9.971 l -20.01,-9.972 -13.2991,10.144 c -7.3145,5.579 -14.3811,14.454 -15.7033,19.722 -3.0734,12.246 -10.6983,9.918 -12.3102,-3.758 -1.4695,-12.467 7.9421,-28.24 19.6704,-32.964 6.0501,-2.437 6.6195,-3.452 2.0341,-3.627 -5.9244,-0.226 -18.0872,11.961 -28.8948,28.954 -3.3004,5.189 -5.4747,5.951 -7.7233,2.706 -1.7213,-2.484 -6.5547,-4.209 -10.741,-3.834 -6.1546,0.552 -7.8361,-2.017 -8.7852,-13.424 -1.442,-17.331 9.7493,-40.559 26.2187,-54.416 18.4856,-15.555 27.8545,-13.379 45.5544,10.58 12.5047,16.927 35.8275,36.858 43.1307,36.858 0.9074,0 -4.8223,-13.267 -12.7318,-29.483 -41.1694,-84.403 -66.653,-173.129 -71.6113,-249.329 l -2.5512,-39.208 -18.8121,14.86 c -19.2581,15.212 -48.9215,27.202 -66.9272,27.052 -26.7793,-0.223 -61.6803,-29.024 -69.5815,-57.421 -5.5557,-19.966 -4.557,-64.323 2.0319,-90.244 10.3767,-40.821 42.7729,-97.605 55.6856,-97.605 5.8432,0 4.6087,3.688 -11.777,35.183 -43.7172,84.031 -39.2174,167.19 9.9245,183.408 24.3533,8.038 60.8478,-10.226 103.3477,-51.719 22.9335,-22.39 27.9594,-19.142 13.6824,8.844 -5.9466,11.656 -6.6655,17.281 -3.7777,29.558 1.9616,8.339 7.7325,41.039 12.8243,72.666 18.5542,115.25 68.2289,230.283 124.6127,288.568 16.4097,16.963 20.7213,19.586 26.8282,16.317 13.5706,-7.262 23.2053,-23.533 23.2053,-39.188 0,-16.919 4.4997,-16.503 13.6883,1.266 7.3951,14.3 4.4342,30.078 -8.5373,45.494 -5.2438,6.232 -8.5961,12.849 -7.4497,14.704 3.8708,6.263 57.6636,30.421 90.4729,40.63 36.0411,11.216 97.8045,16.692 135.3488,12.001 21.6598,-2.706 21.8313,-2.828 21.8313,-15.556 0,-27.884 12.9463,-35.104 17.2515,-9.622 3.2791,19.409 2.3171,19.427 80.3539,-1.531 48.2124,-12.948 81.7532,-5.826 112.129,23.81 24.0636,23.477 32.6885,42.919 31.1448,70.204 -0.701,12.398 0.022,22.538 1.5999,22.534 1.5814,0 2.8883,-1.301 2.9041,-2.882 0.043,-3.967 7.3206,-50.423 9.8633,-62.935 2.6374,-12.978 12.1577,-16.747 21.3315,-8.445 6.8635,6.212 7.113,5.501 7.113,-20.26 0,-17.538 1.9308,-29.25 5.6286,-34.138 7.9524,-10.514 7.2364,-16.062 -5.2499,-40.68 -15.464,-30.488 -32.8301,-51.042 -61.606,-72.916 -54.4445,-41.385 -115.6919,-61.415 -203.9271,-66.69 l -44.1782,-2.641 -10.6361,13.944 c -5.8499,7.67 -12.3723,13.945 -14.4941,13.945 -10.9705,0 14.7611,-54.296 31.3941,-66.244 5.1445,-3.696 7.4911,-15.859 11.1686,-57.89 2.5606,-29.267 3.814,-54.054 2.7854,-55.082 -2.1643,-2.165 -3.6622,4.136 -11.7649,49.487 -3.2627,18.261 -10.1792,42.806 -15.3702,54.543 -17.5215,39.62 -57.7258,69.178 -90.8486,66.792 -20.9276,-1.508 -19.6096,-7.223 3.3684,-14.608 29.2426,-9.398 24.6745,-13.798 -19.483,-18.767 -48.4068,-5.447 -76.6027,-12.451 -102.0632,-25.353 -19.0743,-9.665 -46.8182,-33.996 -58.469,-51.275 -5.6979,-8.451 -6.6321,-8.668 -12.4167,-2.883 -4.7525,4.752 -8.0335,5.303 -13.6565,2.294 -10.4374,-5.586 -9.2151,-11.96 1.7648,-9.204 13.3716,3.356 14.9843,-3.184 5.0835,-20.615 l -8.7375,-15.382 -6.6764,11.632 c -5.7245,9.975 -8.2929,11.31 -18.015,9.366 -8.7701,-1.754 -12.2442,-0.576 -15.3357,5.2 -7.0282,13.133 -17.327,16.106 -27.4258,7.919 -4.9398,-4.005 -7.7295,-8.539 -6.1991,-10.075 1.5304,-1.536 5.1934,-0.792 8.1399,1.653 7.6079,6.314 16.3648,1.772 21.7778,-11.296 5.3326,-12.874 5.1449,-12.795 15.2708,-6.471 6.5616,4.098 8.8734,3.396 16.7318,-5.079 l 9.1184,-9.833 -9.3071,-22.716 c -5.119,-12.493 -13.8063,-38.834 -19.3052,-58.536 -7.3281,-26.256 -10.9113,-34.19 -13.4179,-29.711 -4.0534,7.243 -18.3732,8.232 -18.3732,1.269 0,-2.663 3.8816,-6.544 8.6257,-8.626 9.214,-4.042 12.9155,-18.726 8.827,-35.016 l -2.3143,-9.221 -8.8819,10.326 c -5.8282,6.775 -11.0669,9.487 -15.2367,7.887 -7.707,-2.957 -8.4418,-10.346 -1.0291,-10.346 2.9293,0 9.2104,-3.146 13.9582,-6.99 l 8.6324,-6.99 -10.4429,-31.358 c -10.8429,-32.558 -36.0269,-71.736 -53.4517,-83.153 -13.3477,-8.746 -35.1432,-1.514 -60.3927,20.039 -14.4156,12.305 -20.8988,15.717 -23.9888,12.628 -5.9323,-5.933 -5.1117,-78.924 1.0909,-97.037 4.2967,-12.546 6.4244,-14.429 15.1591,-13.417 8.3309,0.965 11.6381,4.892 18.3629,21.807 l 8.202,20.629 11.8073,-24.74 c 15.6772,-32.848 25.8657,-45.271 37.1285,-45.271 12.833,0 17.108,10.474 17.108,41.918 0,14.898 0.5869,27.087 1.3044,27.087 0.7172,0 10.637,-5.144 22.0435,-11.431 23.6145,-13.016 39.8822,-14.772 45.0597,-4.862 5.3218,10.187 -4.1346,41.074 -17.7695,58.041 -18.0434,20.306 -11.1082,14.801 11.3744,16.839 12.7682,1.158 24.9567,3.847 27.0856,5.976 6.6603,6.66 -0.4673,29.366 -14.287,45.511 l -13.2498,15.479 19.055,2.528 c 33.4736,4.44 37.6676,23.506 11.6811,53.103 l -11.725,13.354 18.3158,2.43 c 36.8406,4.887 44.1976,21.339 23.8734,53.387 l -11.4165,18.002 h 14.4834 c 25.0762,0 29.1273,12.685 17.3994,54.482 -3.4568,12.32 -5.5507,23.134 -4.653,24.032 0.8976,0.897 9.7686,-1.294 19.7135,-4.87 24.9918,-8.987 31.5323,-4.45 31.3142,21.724 -0.087,10.803 0.3032,19.642 0.8737,19.642 0.5705,0 10.3637,-4.575 21.7628,-10.165 11.3993,-5.591 23.4706,-9.112 26.8255,-7.824 3.3548,1.287 9.1404,12.658 12.8569,25.268 6.1481,20.861 7.3245,22.415 13.05,17.233 5.8087,-5.256 5.3109,-9.442 -6.4676,-54.399 -7.0182,-26.787 -16.2982,-59.71 -20.6222,-73.163 -10.7307,-33.386 -10.3448,-54.165 1.2382,-66.664 26.0158,-28.071 117.3043,-52.889 148.1096,-40.265 25.4266,7.344 4.1128,14.635 -10.3451,28.894 -24.9601,24.617 -37.5894,44.09 -34.2463,52.802 1.0982,2.862 8.9863,7.086 17.5289,9.386 11.453,3.084 15.5321,6.157 15.5321,11.702 0,4.136 -1.1538,7.059 -8.0473,8.095 -6.235,0.936 -26.4556,22.899 -26.4556,28.941 0,3.146 3.3527,10.428 7.4505,16.183 7.4366,10.444 7.4332,10.499 -1.7969,29.344 -5.0862,10.385 -9.3015,20.826 -9.3675,23.204 -0.065,2.377 -0.9421,8.493 -4.4466,11.387 -5.8467,4.827 -8.2355,1.68 -6.2067,-18.096 2.2016,-21.461 2.1472,-21.603 -12.482,-32.586 -8.0812,-6.068 -23.8425,-23.444 -35.025,-38.615 -11.1825,-15.171 -20.6883,-27.227 -21.1241,-26.792 -0.4357,0.436 3.4609,17.162 8.659,37.168 5.1982,20.007 9.8185,46.206 10.2674,58.222 l 0.8162,21.846 8.8525,-5.79 c 15.4781,-10.124 24.7614,-5.537 33.5638,16.585 l 7.9521,19.985 14.275,-17.078 c 7.8513,-9.393 18.3622,-18.103 23.3576,-19.357 8.0658,-2.024 9.8002,-6.186 15.4957,-37.177 7.6714,-41.744 18.3795,-71.799 30.8689,-86.642 19.9294,-23.684 97.6378,-33.154 138.6646,-16.898 26.2907,10.418 58.0297,33.974 60.8352,45.152 3.0525,12.162 -3.5102,22.944 -17.4906,28.735 -13.7627,5.7 -17.9728,17.906 -12.0433,34.916 5.469,15.688 2.2417,20.096 -12.4689,17.03 -40.0916,-8.357 -54.7708,-5.833 -66.0319,11.354 -5.7078,8.711 -5.8879,11.805 -1.4657,25.205 6.8209,20.667 1.5447,26.182 -16.7446,17.504 -17.3176,-8.218 -30.4819,-7.972 -38.3452,0.717 -3.4895,3.856 -6.3446,7.916 -6.3446,9.022 0,1.105 12.5073,3.075 27.7941,4.377 15.2867,1.301 33.6703,3.549 40.8524,4.995 12.9569,2.608 13.0397,2.536 10.6681,-9.323 -3.4025,-17.012 4.12,-19.186 10.8289,-3.13 5.2185,12.49 6.4364,13.232 16.2127,9.874 5.8138,-1.997 18.7087,-5.129 28.6552,-6.96 14.9601,-2.753 19.1,-2.207 23.9605,3.164 3.2315,3.571 5.8755,10.097 5.8755,14.503 0,18.605 2.5334,19.739 27.0441,12.11 12.5143,-3.894 25.2666,-6.117 28.3384,-4.938 6.152,2.361 14.5468,24.155 13.442,34.897 -1.3773,13.393 0.2369,14.485 19.4454,13.154 27.3032,-1.892 39.5816,6.541 37.3156,25.627 -0.9172,7.725 -2.8558,16.704 -4.3082,19.954 -2.0296,4.542 -0.2173,5.873 7.8291,5.751 15.0732,-0.229 21.309,13.369 18.7544,40.895 -1.1171,12.038 -4.3388,27.542 -7.1592,34.454 -4.6833,11.477 -4.4405,13.123 2.8,18.979 6.9819,5.647 8.0823,11.461 9.22,48.717 2.1264,69.626 -14.7392,111.174 -66.4643,163.736 -75.439,76.658 -162.9585,110.59 -260.6889,101.068 z m 89.2942,-28.73 c 80.1742,-16.29 167.1239,-84.406 200.3148,-156.926 10.1721,-22.226 19.3097,-73.638 18.7377,-105.426 -0.2174,-12.072 -0.7955,-11.303 -5.7596,7.667 -6.6815,25.531 -30.9789,75.886 -48.3575,100.218 -24.4482,34.231 -77.8021,84.939 -71.1608,67.632 1.6625,-4.333 -1.5069,-5.758 -13.8426,-6.225 -15.8443,-0.6 -16.0635,-0.424 -22.6594,18.148 -7.8714,22.162 -18.1336,26.72 -39.7891,17.672 -12.2678,-5.126 -14.8212,-5.167 -20.1589,-0.322 -8.4595,7.678 -20.6977,29.064 -16.632,29.064 1.8322,0 18.7118,-5.199 37.5103,-11.554 44.5119,-15.045 34.9943,-5.585 -15.3116,15.219 -64.2001,26.552 -109.916,28.591 -158.5605,7.074 -9.8811,-4.37 -23.141,-8.512 -29.4665,-9.203 -10.0605,-1.1 -9.1169,-0.01 7.5331,8.68 41.569,21.701 120.6899,29.846 177.6026,18.283 z m -63.0394,-33.972 c -6.0061,-7.228 -12.8177,-13.266 -15.1371,-13.418 -4.4013,-0.289 -36.0365,21.364 -36.0365,24.666 0,1.041 13.9711,1.893 31.0469,1.893 h 31.0468 z m -72.8686,-2.194 c -7.9269,-13.419 -8.2144,-13.479 -19.5168,-4.05 -11.3748,9.489 -10.9382,10.944 3.8337,12.778 6.8526,0.851 14.7133,1.822 17.4681,2.159 3.6427,0.447 3.1558,-2.523 -1.785,-10.887 z m 249.8896,-80.796 c 3.7473,-11.807 0.4086,-12.362 -9.6901,-1.613 -8.8705,9.443 -8.8826,9.569 -0.9128,9.569 4.808,0 9.0992,-3.22 10.6024,-7.956 z m 20.7101,-16.621 c 2.6491,-3.192 3.0201,-6.317 0.9052,-7.624 -1.9711,-1.219 -4.4811,1.216 -5.5777,5.409 -2.3623,9.033 -1.3748,9.501 4.6725,2.215 z m 37.3803,-73.782 c -3.6824,-3.682 -5.0195,-1.214 -7.5953,14.019 l -2.2688,13.418 6.2292,-12.421 c 3.4261,-6.832 5.0618,-13.589 3.6349,-15.016 z m 37.884,-149.965 c -1.2481,-1.248 -4.1255,-0.413 -6.3942,1.856 -2.9441,2.944 -2.6591,6.712 0.9954,13.162 l 5.1203,9.037 1.2738,-10.893 c 0.7009,-5.991 0.2532,-11.914 -0.9954,-13.162 z m -746.1083,-61.498 c 11.3347,-6.893 12.0043,-12.205 1.5386,-12.205 -7.7035,0 -28.1491,30.455 -28.0535,41.787 0.076,8.622 1.0769,7.78 7.4445,-6.247 4.0481,-8.917 12.6297,-19.418 19.0704,-23.335 z m 724.0874,6.443 c -2.7716,-1.758 -11.8588,-3.223 -20.1937,-3.255 l -15.1542,-0.05 15.1542,15.538 15.1544,15.539 5.0393,-12.284 c 4.1635,-10.149 4.1635,-12.84 0,-15.48 z m -58.2436,-44.378 c -1.1148,-1.115 -6.8513,-0.807 -12.7479,0.684 l -10.7211,2.71 11.5011,9.246 11.5009,9.246 1.2469,-9.93 c 0.6857,-5.461 0.3347,-10.841 -0.7803,-11.956 z m -62.3989,-24.318 c -1.8549,-1.855 -7.6403,-2.256 -12.8563,-0.892 l -9.4838,2.48 11.4668,4.726 c 11.4121,4.704 18.0414,0.854 10.8733,-6.313 z m -234.4373,-33.334 c 11.6759,-13.596 11.5857,-17.874 -0.1467,-6.95 -6.6517,6.192 -12.0939,11.799 -12.0939,12.459 0,3.572 7.2394,0.314 12.2406,-5.509 z m 77.8505,2.875 c 1.3031,-2.109 0.6444,-3.834 -1.4644,-3.834 -2.1084,0 -4.8997,1.725 -6.2029,3.834 -1.3032,2.108 -0.6444,3.834 1.4643,3.834 2.1086,0 4.8999,-1.726 6.203,-3.834 z m -126.3665,-10.543 c -4.0769,-16.507 -7.6886,-17.512 -21.4524,-5.966 l -12.8257,10.758 15.15,2.332 c 8.3326,1.282 16.631,2.576 18.441,2.875 1.8099,0.299 2.1192,-4.2 0.6868,-9.999 z m -69.4415,-15.334 c -1.4056,-7.907 -3.8998,-15.844 -5.5427,-17.637 -1.6428,-1.793 -10.9998,1.435 -20.7932,7.175 -9.7934,5.739 -16.7419,11.519 -15.441,12.844 3.9946,4.07 26.2347,11.394 35.533,11.702 8.0973,0.269 8.5955,-0.855 6.2439,-14.084 z m 225.7773,-0.916 c 12.9415,-0.06 12.7957,-0.852 -9.5126,-52.351 -24.9442,-57.583 -25.5094,-57.503 -26.9107,3.782 l -1.2133,53.065 13.4178,-2.227 c 7.3798,-1.225 18.2782,-2.246 24.2188,-2.269 z m -289.6581,-28.795 c 0.413,-9.488 -0.7216,-17.252 -2.5207,-17.252 -11.6871,0 -27.2319,5.586 -27.2319,9.786 0,4.488 21.942,24.57 26.9603,24.675 1.1228,0.02 2.3794,-7.721 2.7923,-17.209 z m 356.8154,-21.616 c 21.6147,2.536 -3.166,-9.517 -18.945,-22.108 -19.7985,-15.798 -53.3146,-34.744 -71.3641,-40.34 -7.8896,-2.447 -7.5944,-1.27 4.0062,15.968 6.8877,10.236 18.3914,31.963 25.5636,48.283 l 13.0401,29.673 c 0,0 1.77,9.839 6.6186,-9.52 2.6928,-10.751 19.9051,-24.44 41.0806,-21.956 z m 40.2387,-37.091 c 6.3099,-6.973 5.4034,-7.669 -25.5777,-19.647 -33.7736,-13.057 -108.4676,-25.294 -115.4295,-18.91 -2.1201,1.944 3.2239,3.339 12.7874,3.339 23.7891,0 62.3158,20.266 92.3073,48.555 19.5149,13.533 22.845,38.899 27.2142,8.763 1.186,-8.179 5.1002,-18.125 8.6983,-22.1 z m -231.29,26.347 c 0,-1.984 -1.5553,-4.569 -3.4561,-5.743 -1.901,-1.175 -5.2224,-7.203 -7.3811,-13.395 -3.1117,-8.927 -2.4747,-14.104 3.0746,-24.988 l 6.9993,-13.729 -16.2177,-9.504 c -17.9335,-10.51 -59.9093,-25.936 -62.7754,-23.07 -3.9558,3.956 69.0837,94.037 76.2469,94.037 1.9302,0 3.5095,-1.624 3.5095,-3.608 z m -207.5525,-31.13 c 9.2161,-23.768 8.8433,-27.974 -2.5448,-28.705 -3.5774,-0.23 -11.9267,-0.713 -18.5538,-1.074 -16.895,-0.919 -18.0537,-8.546 -5.0117,-32.987 6.2208,-11.657 11.3105,-22.832 11.3105,-24.833 0,-2 -9.8914,-6.777 -21.9809,-10.615 -19.0578,-6.049 -22.0828,-8.333 -22.7457,-17.173 -0.4368,-5.822 4.144,-17.937 10.6763,-28.237 18.2293,-24.33 4.6458,-27.534 -24.9372,-32.49 -5.279,0 3.9385,61.648 13.7568,92.008 11.6535,36.034 43.9425,107.342 48.6056,107.342 1.3281,0 6.4693,-10.456 11.4249,-23.236 z m 464.4078,-9.693 c 0,-4.958 -18.5008,-17.976 -41.2176,-29.004 -26.2262,-12.731 -61.7882,-17.997 -77.6259,-11.494 -8.8196,3.622 -8.3167,3.955 6.3051,4.179 22.0263,0.336 61.259,13.107 81.8691,26.648 15.9015,10.448 30.6693,15.104 30.6693,9.671 z m -266.0346,-51.353 c 0.2228,-6.284 5.1633,-18.616 10.9792,-27.405 8.3721,-12.651 9.1601,-15.436 3.7834,-13.373 -7.0328,2.699 -63.9628,18.571 -84.1734,23.468 -10.2523,2.484 -10.6685,3.107 -3.8336,5.746 4.217,1.628 17.1557,5.108 28.7525,7.733 11.5968,2.625 25.3979,7.066 30.6692,9.87 13.1366,6.986 13.3647,6.887 13.8227,-6.039 z m 11.9137,-46.694 c 10.9923,-2.312 22.9158,-7.441 26.4969,-11.398 6.2706,-6.929 6.0282,-7.109 -6.5682,-4.874 -37.349,6.625 -99.3363,27.659 -99.3363,33.706 0,0.722 13.3699,-1.96 29.7109,-5.959 16.341,-4 38.7044,-9.163 49.6967,-11.475 z m -277.0634,-107.062 c 5.7094,-8.628 9.8202,-16.219 9.1351,-16.869 -0.6846,-0.65 -8.8332,-2.669 -18.107,-4.485 -25.2388,-4.942 -27.0712,-11.111 -12.6153,-42.474 18.6725,-40.51 16.9936,-42.685 -17.9893,-23.306 -29.2621,16.21 -33.6159,14.016 -37.0036,-18.651 -1.4901,-14.369 -3.8736,-28.298 -5.2969,-30.954 -1.6109,-3.007 -9.5938,6.76 -21.1506,25.877 -10.2095,16.889 -20.7386,30.707 -23.3979,30.707 -2.6593,0 -9.2557,-7.332 -14.6588,-16.293 l -9.8239,-16.293 -0.2022,21.085 c -0.1108,11.597 -1.269,25.069 -2.5733,29.939 l -2.3713,8.854 14.4506,-9.806 c 17.8658,-12.124 40.5378,-18.518 53.831,-15.182 20.3901,5.117 70.7441,68.795 70.7441,89.462 0,8.349 6.9617,3.602 17.0291,-11.611 z m 610.7328,551.969 c -6.7311,-3.798 -9.4197,-14.905 -3.608,-14.905 1.7055,0 6.4497,2.471 10.5426,5.492 9.3884,6.929 3.3031,15.19 -6.9346,9.413 z m -24.6172,-10.113 c 0.087,-5.799 -1.2766,-15.555 -3.0319,-21.68 -2.9756,-10.384 -2.5792,-10.977 5.8577,-8.771 5.7544,1.505 11.5434,0.11 15.8995,-3.833 6.4164,-5.807 6.8502,-5.547 6.8502,4.099 0,5.664 -2.5876,11.292 -5.7504,12.505 -3.1627,1.214 -5.7505,5.99 -5.7505,10.614 0,8.029 -6.3749,17.608 -11.7175,17.608 -1.3842,0 -2.4449,-4.744 -2.3571,-10.542 z m -277.2836,-27.337 c 0,-2.15 2.3094,-5.289 5.1321,-6.975 2.8226,-1.686 7.0194,-6.516 9.3263,-10.733 4.0538,-7.411 4.2875,-7.426 6.979,-0.437 1.5316,3.976 1.04,10.014 -1.0921,13.418 -4.3869,7.001 -20.3453,10.71 -20.3453,4.728 z m 223.3108,0.838 c -8.1524,-3.289 -5.5846,-12.285 2.8752,-10.073 6.4423,1.685 7.6672,0.118 7.6672,-9.808 0,-7.742 -2.5469,-13.176 -7.3896,-15.768 -10.2288,-5.474 -19.4459,-1.03 -19.4459,9.376 0,4.788 -2.4835,10.766 -5.5187,13.285 -7.1036,5.895 -25.9472,3.718 -28.2435,-3.264 -1.2627,-3.84 0.5173,-4.776 6.2351,-3.281 10.5388,2.756 21.0857,-5.277 19.1714,-14.601 -1.0063,-4.898 -4.0741,-6.982 -9.0427,-6.142 -25.339,4.287 -37.6419,-1.24 -19.9943,-8.983 6.7549,-2.963 8.6402,-6.927 8.6402,-18.169 0,-8.124 1.8821,-14.377 4.327,-14.376 5.1346,0 13.8398,19.435 12.1735,27.174 -0.6988,3.248 1.9031,5.415 6.5014,5.415 10.9351,0 12.4367,-15.455 2.0422,-21.018 -9.927,-5.313 -6.6961,-11.568 5.975,-11.568 6.1133,0 10.5332,-2.844 12.4424,-8.005 2.6032,-7.037 3.547,-7.298 7.8098,-2.162 3.6434,4.39 3.7961,7.81 0.614,13.755 -2.3289,4.352 -5.6002,7.913 -7.2693,7.913 -5.1133,0 -0.087,22.352 5.5137,24.5 5.5604,2.134 16.9592,-11.194 16.9592,-19.829 0,-2.818 1.7251,-4.058 3.8337,-2.755 2.1084,1.303 3.8335,5.718 3.8335,9.811 0,7.291 6.8557,9.566 24.2424,8.043 10.0915,-0.883 6.5684,12.509 -3.677,13.978 -4.4597,0.639 -10.8498,-1.579 -14.2001,-4.929 -5.5661,-5.566 -6.6991,-5.484 -13.1386,0.956 -5.7035,5.704 -6.2778,8.86 -3.0121,16.555 5.3012,12.491 21.6172,12.873 26.9876,0.632 4.6894,-10.688 9.6335,-11.18 9.6335,-0.958 0,8.617 -12.7065,23.002 -20.3184,23.002 -2.7411,0 -6.782,-1.798 -8.9799,-3.996 -2.7725,-2.773 -5.4989,-2.186 -8.9035,1.917 -4.9782,5.998 -9.6922,6.865 -18.3447,3.374 z m -272.19,-7.667 c -7.5918,-3.064 -5.5706,-8.962 3.0709,-8.962 8.2958,0 21.3422,-23.734 16.9515,-30.838 -1.2458,-2.016 -0.5401,-3.665 1.5687,-3.665 6.631,0 8.9666,7.702 6.4323,21.21 -3.7056,19.753 -13.9873,27.918 -28.0234,22.255 z m -561.7381,-13.754 c -0.9378,-2.636 1.8845,-11.693 6.2707,-20.127 6.3453,-12.201 7.9993,-22.514 8.0936,-50.467 0.098,-28.756 -0.8042,-34.368 -4.9656,-30.916 -14.7875,12.265 -11.0588,-29.428 5.0973,-56.997 9.5048,-16.218 20.9762,-23.598 28.9867,-18.647 2.622,1.62 1.2153,4.62 -3.8213,8.147 -8.0931,5.669 -16.2954,19.197 -21.1176,34.83 -2.273,7.368 -1.3653,8.486 6.2232,7.667 7.0511,-0.761 8.5715,0.622 7.3684,6.708 -0.8335,4.217 -1.2184,24.253 -0.8552,44.523 0.364,20.271 -1.078,41.432 -3.2047,47.024 -3.846,10.116 -3.812,10.14 6.6575,4.726 25.6289,-13.253 73.658,-79.289 73.6712,-101.291 0,-2.76 1.9315,-3.827 4.2885,-2.37 6.5624,4.056 1.1409,33.252 -10.4053,56.038 -14.4207,28.458 -48.8008,61.564 -72.1948,69.519 -22.5941,7.684 -27.8401,7.969 -30.0931,1.633 z m 743.5175,-1.597 c -5.2123,-5.213 -2.2792,-8.945 7.0284,-8.945 5.9635,0 9.5841,-2.173 9.5841,-5.751 0,-3.163 1.7252,-5.751 3.8337,-5.751 5.3388,0 4.8041,12.831 -0.7672,18.402 -5.0122,5.012 -15.6107,6.113 -19.6794,2.045 z m -108.9399,-26.819 c -7.1692,-2.893 -5.785,-8.13 2.8753,-10.879 4.9909,-1.584 7.6673,-5.8 7.6673,-12.079 0,-5.999 1.8112,-9.05 4.7921,-8.071 7.3219,2.404 7.907,20.321 0.8932,27.335 -6.4935,6.494 -8.2803,6.901 -16.2273,3.694 z m 98.7168,-12.796 c 0,-2.108 1.6579,-3.833 3.6843,-3.833 2.0264,0 7.1881,-3.761 11.4705,-8.358 7.2689,-7.802 7.3653,-8.823 1.4508,-15.358 -7.5341,-8.325 -3.999,-13.99 4.3869,-7.031 7.9976,6.638 7.3523,24.359 -1.1677,32.069 -7.7322,6.998 -19.8248,8.529 -19.8248,2.511 z m -214.685,-3.298 c 0,-4.584 23.3541,-16.796 26.3639,-13.786 1.1645,1.164 0.2793,5.054 -1.9673,8.642 -4.4513,7.111 -24.3966,11.316 -24.3966,5.144 z m 149.6427,-4.208 c -4.5033,-2.848 -3.5164,-4.355 4.9648,-7.579 6.1405,-2.335 12.7341,-9.135 15.7022,-16.194 4.7316,-11.253 5.3115,-11.555 7.7068,-4.008 3.0702,9.674 -2.7808,22.06 -13.005,27.532 -8.7836,4.701 -8.3417,4.693 -15.3688,0.249 z m 98.3974,-6.421 c -1.3342,-1.334 1.8286,-5.772 7.0284,-9.862 5.4108,-4.256 9.4541,-11.417 9.4541,-16.743 0,-10.332 5.6158,-12.514 9.0664,-3.522 5.3999,14.072 -16.1698,39.506 -25.5489,30.127 z m -440.8193,-3.782 c -5.5384,-5.538 -2.3822,-7.384 12.6262,-7.384 8.7504,0 14.8115,1.688 14.081,3.921 -1.5208,4.648 -22.7668,7.404 -26.7072,3.463 z m 394.8199,-11.548 c -2.1045,-2.104 18.5785,-24.414 22.6339,-24.414 0.8313,0 1.5114,3.327 1.5114,7.393 0,12.72 -16.6847,24.482 -24.1453,17.021 z m -78.485,-9.798 c 1.7463,-5.239 21.4995,-12.684 24.8262,-9.358 1.2229,1.223 0.043,4.853 -2.6259,8.067 -5.7468,6.924 -24.4405,8.011 -22.2003,1.291 z m -206.9379,-20.989 c -9.5413,-3.85 -5.009,-12.796 6.4828,-12.796 6.201,0 12.3408,-1.725 13.644,-3.834 3.5134,-5.685 9.5841,-4.644 9.5841,1.643 0,12.414 -16.038,20.504 -29.7109,14.987 z m -65.1722,-5.249 c -4.7441,-1.907 -8.6257,-6.022 -8.6257,-9.145 0,-4.984 1.6143,-5.004 13.2035,-0.162 7.262,3.034 16.3189,4.348 20.1268,2.92 6.0846,-2.282 6.2859,-1.813 1.6616,3.872 -5.7772,7.102 -13.1938,7.81 -26.3662,2.515 z m -38.5282,-15.982 c -7.6529,-7.653 -5.219,-10.666 6.691,-8.284 9.7928,1.958 12.3348,0.546 19.1539,-10.639 l 7.8626,-12.896 0.011,11.865 c 0.022,19.373 -21.5421,32.134 -33.7218,19.954 z m -214.0875,-38.407 c -0.087,-26.156 -1.8993,-35.65 -10.3162,-53.901 -10.8975,-23.63 -12.8228,-43.983 -6.0093,-63.528 6.1043,-17.511 10.4444,-11.539 10.0276,13.798 -0.2858,17.38 1.9899,26.507 10.7536,43.13 9.2173,17.484 11.1432,25.814 11.2739,48.763 0.1304,22.958 -1.1885,29.026 -7.7362,35.582 -14.1426,15.671 -8.119,-16.563 -7.9934,-23.844 z m 272.7425,20.006 c -1.3032,-2.108 -1.8363,-3.944 -1.1847,-4.078 0.652,-0.135 6.6562,-0.786 13.3437,-1.448 9.0633,-0.896 11.6429,0.142 10.1323,4.079 -2.3347,6.084 -18.7662,7.151 -22.2913,1.447 z m -98.2921,-11.17 c -10.4376,-8.462 -7.7044,-14.458 3.787,-8.308 13.4134,7.178 18.672,4.638 26.9781,-13.033 7.5929,-16.153 8.6391,-16.918 17.5602,-12.854 7.2595,3.308 10.8627,3.18 15.3503,-0.544 4.8197,-4 5.864,-3.843 5.864,0.883 0,8.651 -10.1182,15.313 -18.9844,12.498 -5.4158,-1.718 -7.8512,-0.79 -7.8512,2.995 0,7.708 -18.8553,25.7 -26.9337,25.7 -3.6959,0 -10.7925,-3.302 -15.7703,-7.338 z m -5.2424,-36.428 c -5.2573,-5.257 -9.5586,-12.224 -9.5586,-15.483 0,-8.128 3.3036,-7.429 11.2478,2.382 7.8235,9.662 19.0432,7.386 22.1495,-4.492 1.0999,-4.207 3.5239,-7.648 5.3865,-7.648 8.4601,0 -1.131,24.88 -11.7903,30.585 -6.5347,3.497 -9.5047,2.587 -17.4349,-5.344 z m -271.5254,2.872 c -4.8285,-4.828 -2.5287,-8.336 10.9106,-16.642 16.8487,-10.413 21.0168,-18.194 27.2376,-50.842 5.1222,-26.882 15.4117,-45.738 28.8969,-52.956 12.0015,-6.423 12.3993,-1.773 1.2853,15.021 -7.1241,10.765 -11.2413,23.739 -13.6688,43.071 -3.3729,26.863 -9.702,39.843 -28.6807,58.822 -6.1589,6.159 -21.2941,8.213 -25.9809,3.526 z m 129.9603,-37.688 c -1.3835,-7.374 -6.5123,-22.035 -11.3974,-32.579 -11.3802,-24.563 -9.2449,-36.982 7.7523,-45.087 10.7271,-5.116 14.3653,-5.319 22.0083,-1.228 10.6035,5.675 25.4691,30.206 25.4691,42.028 0,12.264 -4.5743,9.529 -17.2514,-10.314 -8.4376,-13.207 -14.3091,-18.325 -22.0436,-19.215 -8.8726,-1.021 -10.5425,0.224 -10.5425,7.859 1.9734,11.716 7.9833,23.341 12.5732,32.71 8.3718,15.251 11.7425,22.949 11.9625,1.693 0.1956,-18.86 7.5669,-19.269 9.2078,-0.08 0.8672,10.148 3.0298,21.416 -4.5538,30.428 -10.9138,11.484 -20.2286,8.694 -23.1845,-6.223 z m 115.7136,-52.071 c -3.69,-2.149 -6.7091,-6.409 -6.7091,-9.467 0,-6.575 4.4929,-7.201 10.2629,-1.431 2.9497,2.949 6.4539,0.864 12.2677,-7.301 4.4764,-6.286 8.1388,-13.665 8.1388,-16.397 0,-3.633 1.14,-3.827 4.2474,-0.719 5.8157,5.816 -2.4998,30.584 -11.9697,35.652 -8.4846,4.541 -7.8414,4.554 -16.238,-0.337 z m -0.3195,-52.086 c -5.0279,-5.027 -2.4231,-8.192 5.1194,-6.22 6.0525,1.583 9.0648,-1.127 14.2474,-12.818 6.3931,-14.422 6.6083,-14.543 7.8958,-4.473 1.8321,14.331 -5.3249,26.067 -15.8966,26.067 -4.8457,0 -9.9604,-1.15 -11.366,-2.556 z m -26.8357,-19.168 c -4.5596,-4.559 -2.7232,-8.007 5.396,-10.13 4.3736,-1.144 8.8877,-5.658 10.0313,-10.031 1.1438,-4.374 3.6034,-7.952 5.466,-7.952 6.287,0 3.4437,15.277 -4.2807,23.002 -8.0418,8.041 -12.3552,9.369 -16.6126,5.111 z m -101.8939,-14.289 c -5.9171,-7.13 4.3309,-17.658 17.1882,-17.658 10.7337,0 12.2792,7.985 3.286,16.978 -7.4471,7.447 -14.6591,7.686 -20.4742,0.68 z m -41.549,-9.851 c -10.0664,-12.764 -10.6189,-15.475 -3.1534,-15.475 5.5412,0 21.3634,17.419 21.3634,23.519 0,6.866 -9.8988,2.493 -18.21,-8.044 z m 152.4049,-74.852 c -7.5255,-8.032 -11.9204,-9.74 -20.5941,-8.005 -9.4785,1.895 -10.357,1.398 -6.2563,-3.543 10.8787,-13.108 41.0043,-0.816 37.7122,15.387 -1.0704,5.268 -2.9516,4.603 -10.8618,-3.839 z m -82.8467,-3.559 c -1.1453,-2.985 -1.5225,-10.317 -0.8378,-16.293 1.6998,-14.846 17.1174,-17.693 20.6031,-3.805 4.3262,17.237 -13.7926,35.662 -19.7651,20.098 z m -29.6242,-0.959 c -1.4056,-1.405 -2.5557,-7.443 -2.5557,-13.418 0,-8.241 1.8173,-10.862 7.5324,-10.862 9.7578,0 16.0424,11.431 11.1203,20.226 -3.766,6.73 -11.479,8.672 -16.097,4.054 z" fill="#030303" transform="translate(-62.179688,-40.190086) matrix(0.26458333,0,0,0.26458333,893.96825,-3914.1705)"/>
</svg>