<?xml version="1.0" ?><svg xmlns="http://www.w3.org/2000/svg" width="249.67407mm" height="299.95108mm" viewBox="0 0 249.67407 299.95108">
    <path fill="#e1d7c5" d="m -2022.9982,1555.9177 -0.3106,12.6509 15.8383,-5.6922 z m 53.7548,23.3768 -21.2669,37.5378 2.5554,1.804 1.2434,26.1581 6.4854,1.2346 -1.2449,19.3187 -25.1825,-1.7472 -0.741,-22.2539 c 0,0 2.7082,2.5542 1.743,-4.8545 -0.965,-7.4087 -8.5877,-33.8538 -10.6102,-39.5718 -2.0225,-5.718 -4.8762,-8.7204 -4.8762,-8.7204 l -28.6147,61.3596 c 0,0 -2.8448,1.3113 -3.6339,5.1676 -0.789,3.8564 -1.3958,36.4128 -1.3958,36.4128 l -18.4671,1.8237 0.6537,-46.6375 c 0,0 2.4905,-1.7476 2.6991,-6.4776 0.2085,-4.7302 0.5079,-14.2385 0.5079,-14.2385 l -10.0531,-28.1156 -9.4495,28.173 -0.4507,17.2475 2.633,1.0258 1.9668,52.6857 c 0,0 -3.0425,2.2807 -3.4288,5.0162 -0.3864,2.7355 -0.4811,10.0108 -0.4811,10.0108 l -9.2263,0.5328 c 0,0 0.2542,-8.7013 -1.9926,-10.126 -2.2468,-1.4248 -14.316,-42.6476 -14.316,-42.6476 l -21.1351,49.3242 -0.1809,8.4444 4.0794,1.881 1.3968,25.7401 3.3279,2.1089 0.9344,19.312 -9.3747,-0.096 c 0,0 0.7937,9.0801 -0.6878,9.555 -1.4815,0.4749 -4.3528,0.4563 -5.2084,-2.1843 -0.8556,-2.6405 -2.5622,-6.0415 -2.5622,-6.0415 l -7.1391,0.4563 1.665,17.4645 -6.9091,-0.2155 c 0,0 -3.4046,2.1283 -2.3027,3.99 1.1017,1.8616 9.233,3.191 9.233,3.191 0,0 2.4028,3.3818 1.9291,10.6955 -0.4738,7.3137 -1.633,35.248 -1.633,35.248 l 0.1716,8.2067 c 0,0 -4.3165,4.4376 6.644,5.5247 22.4153,2.2231 95.2944,0.4538 106.5708,0.3018 11.2764,-0.152 58.3743,0.8581 64.7625,0.6491 6.3883,-0.209 22.3444,1.5001 34.4749,0.1514 12.1306,-1.3488 18.0929,-3.9693 18.0929,-3.9693 0,0 -1.1964,-20.8212 1.0873,-36.4365 2.2838,-15.6153 2.6728,-41.4032 2.6727,-41.4032 l -7.2678,-1.5239 -1.6733,-14.1335 -10.7451,-0.038 -8.6129,-20.992 -16.231,14.6281 c 0,0 -3.7329,-60.2669 -3.6866,-68.8914 0.046,-8.6245 -5e-4,-34.2625 -5e-4,-34.2625 l 6.5593,-4.2566 0.71,-25.2641 z m -145.6381,58.7034 -9.1741,5.5728 c -0.4665,2.8261 9.6496,0.8118 9.6495,0.8118 z m 127.9111,38.3832 c 0.2325,0 0.4323,0.017 0.5948,0.043 2.5987,0.4272 4.6632,5.3222 4.6632,5.3222 l -3.6488,58.5044 -14.0793,3.2396 c 0,0 0.178,-36.7901 -0.1602,-42.5214 -0.3382,-5.7312 -2.563,-6.3901 -3.6132,-7.9742 -1.0502,-1.5841 -2.9904,-9.9137 0.089,-11.6758 1.8355,-2.4029 12.6666,-4.9777 16.1546,-4.9382 z m 45.4096,25.9984 -0.2284,10.1224 9.971,-3.9708 c 0,0 -5.9258,-5.7125 -9.7426,-6.1516 z" transform="translate(-184.67926,269.61036) translate(2345.2034,-1824.68)"/>
    <path fill="#82ccc2" d="m -2020.6097,1588.7048 c -2.2905,0.4539 -27.462,56.4606 -28.5368,58.6099 -1.0917,2.1834 -1.1885,3.4933 -1.1885,3.4933 0,0 41.6322,-8.394 43.1121,-9.0734 1.48,-0.6793 2.1106,-1.213 1.8923,-3.639 -0.2184,-2.426 -13.6107,-48.011 -15.1877,-49.3696 -0.025,-0.021 -0.055,-0.028 -0.091,-0.021 z m -92.8398,74.1123 c -3.0733,0.6125 -19.9592,41.6947 -20.3652,42.5783 -0.4125,0.8977 -0.2667,3.7362 -0.2667,3.7362 l 33.7473,-7.1567 c 0,0 -10.3113,-38.4528 -12.98,-39.1563 -0.042,-0.011 -0.087,-0.011 -0.1354,0 z m 169.5524,72.069 c -0.03,0 -0.059,0.012 -0.086,0.029 -1.7384,1.0864 -22.5547,35.5038 -22.5547,35.5038 0,0 30.2469,0.8256 31.4203,-3.7807 1.1551,-4.5344 -6.8701,-31.9337 -8.7793,-31.7525 z" transform="translate(-184.67926,269.61036) translate(2345.2034,-1824.68)"/>
    <path fill="#c286ca" fill-opacity=".774903" d="m -1967.7047,1577.7783 -19.6035,39.2777 33.1898,-1.5771 z m -110.2191,19.6267 -10.6019,27.972 c 0.6551,-0.2184 15.1146,-2.9838 20.161,0.9947 5.0463,3.9787 -9.5591,-28.9667 -9.5591,-28.9667 z m 0.3907,144.8444 -23.2689,32.6663 1.6883,2.5548 34.4464,-4.3341 z" transform="translate(-184.67926,269.61036) translate(2345.2034,-1824.68)"/>
    <path fill="#f1d27e" d="m -1956.3532,1616.3992 -32.5913,1.2599 1.6795,7.3965 c 3.1009,-0.4521 33.1086,0.2904 33.1086,0.2904 z m -122.4339,8.1763 c -4.144,-0.019 -9.4495,1.5461 -9.4495,1.5461 l 0.032,4.1988 c 1.3244,-0.097 12.9849,-0.4848 14.503,0.1612 1.5182,0.646 4.7805,2.0996 4.1667,0.065 -0.6137,-2.0348 -3.779,-5.4909 -8.0104,-5.9108 -0.3967,-0.039 -0.813,-0.058 -1.2418,-0.06 z m 70.9094,17.7994 -44.2924,9.248 c 0,0 -0.9964,3.552 -1.3213,7.0172 -0.3249,3.4653 1.798,0.5415 8.3173,-1.4077 6.5193,-1.9492 5.4359,3.2487 7.1902,1.4511 1.7544,-1.7976 9.617,-2.7507 15.01,-3.682 5.3931,-0.9313 16.2011,2.9239 16.2011,2.9239 z m -92.8444,60.356 c -7.7164,-0.1135 -35.167,6.6427 -35.1684,6.643 -0.4522,2.3901 1.0981,7.9458 1.0981,7.9458 0,0 33.1079,-2.2287 35.3043,-3.9083 2.1965,-1.6796 5.2328,-9.3993 0.032,-10.5621 -0.325,-0.073 -0.7516,-0.1108 -1.266,-0.1184 z m 165.1997,64.9862 c -5.196,0.01 -32.3272,4.4396 -32.3272,4.4396 l -0.2434,6.8833 c 0.9038,-0.035 32.4337,0.7644 33.3375,-0.1742 0.9038,-0.9385 2.1556,-10.4282 -0.035,-11.0887 -0.1368,-0.041 -0.3858,-0.061 -0.7322,-0.06 z m -125.9551,6.8487 c -2.9759,-0.106 -37.9491,4.2654 -37.9491,4.2654 l 0.139,6.8828 c 1.0429,0.139 38.8648,-4.0323 38.8648,-4.0323 0,0 -1e-4,-6.6745 -0.8692,-7.0916 -0.027,-0.013 -0.09,-0.021 -0.1855,-0.024 z" transform="translate(-184.67926,269.61036) translate(2345.2034,-1824.68)"/>
    <path fill="#a684e1" d="m -2028.2237,1669.7231 c -1.6394,0.1736 -4.8798,2.7006 -5.362,4.2628 -0.4822,1.5622 -1.948,21.929 -2.1409,23.3562 l 9.2583,-0.9064 c 0,0 0.9258,-17.4352 0.5979,-18.9203 -0.3279,-1.4851 -0.7138,-7.9658 -2.3533,-7.7923 z m 12.317,152.599 c -9.0094,0.097 -19.0988,2.5273 -20.7697,4.6033 -1.9098,2.3726 -1.2542,25.2116 -1.0806,25.8868 0,0 38.6967,0.077 39.9505,0.019 1.2539,-0.058 0.019,-20.7171 -0.6754,-23.1283 -0.6945,-2.4112 -3.9352,-6.5582 -13.6575,-7.2719 -1.2153,-0.089 -2.4802,-0.1229 -3.7673,-0.109 z" transform="translate(-184.67926,269.61036) translate(2345.2034,-1824.68)"/>
    <path fill="#a3977e" d="m -2116.1796,1719.8353 c -0.06,3e-4 -0.1204,0.01 -0.1804,0.024 -1.9198,0.5236 -0.6728,11.6685 -0.6728,11.6685 l 4.438,0.05 v -6e-4 c 0.1208,-4.2025 -1.724,-11.7507 -3.5848,-11.7424 z m 73.795,54.7672 c -0.7621,0.029 -1.5197,0.3534 -2.1508,1.0687 -2.2439,2.543 -1.3464,31.7384 -1.2464,32.5112 l 5.859,0.249 c 0,0 1.4209,-26.7268 1.4459,-29.8183 0.018,-2.2221 -1.9602,-4.0836 -3.9077,-4.0106 z m -34.9767,14.3748 c -0.116,0 -0.2358,0.01 -0.3597,0.032 -3.9643,0.7729 -4.6874,5.1611 -4.7123,7.5546 -0.025,2.3931 -0.1499,7.0057 -0.1499,7.0057 l 8.7018,-2.144 c 0,0 0.1169,-12.3775 -3.4799,-12.4484 z m 60.095,7.4564 c -2.9785,-0.07 -3.668,5.9609 -3.8819,10.4521 0,0 10.3722,2.2187 10.1229,-0.7731 -0.2493,-2.9918 -2.4187,-8.9007 -5.7847,-9.6237 -0.1577,-0.034 -0.3098,-0.052 -0.4563,-0.055 z m 19.2201,1.7307 c -2.5078,0.089 -3.0061,7.9483 -3.0061,7.9483 0,0 7.7041,2.4432 7.9784,0.9224 0.2742,-1.5209 -1.745,-8.0779 -4.5874,-8.8258 -0.1332,-0.035 -0.2616,-0.049 -0.3849,-0.045 z" transform="translate(-184.67926,269.61036) translate(2345.2034,-1824.68)"/>
    <path fill="#eda77e" d="M-1941.1741 1711.9059c0 0 9.6644-1.7917 8.85-3.2304-.8144-1.4388-8.9315-5.8093-8.9315-5.8093zM-2023.0411 1569.3682c0 0 15.547-4.3212 14.2134-6.4481-1.3335-2.1269-14.5004-6.9208-14.5004-6.9208z" transform="translate(-184.67926,269.61036) translate(2345.2034,-1824.68)"/>
    <path fill="#fbe160" d="m -2114.7625,1644.4361 c 0,0 -13.2344,2.3294 -11.5126,0.2532 1.7218,-2.0763 10.9386,-6.8195 11.3438,-6.4482 0.4051,0.3714 0.1688,6.195 0.1688,6.195 z" transform="translate(-184.67926,269.61036) translate(2345.2034,-1824.68)"/>
    <path fill="#eda77e" d="m -2031.8375,1725.6639 -66.4677,2.7657 c 0,0 -0.5707,26.8669 0.088,29.2814 0.6585,2.4145 6.8926,0.1757 6.8926,0.1757 l 11.59,-15.014 9.878,13.6968 46.4044,-1.9317 z m 50.0916,17.5602 -40.5211,3.7315 -0.3075,8.3411 47.6333,-2.0634 z" transform="translate(-184.67926,269.61036) translate(2345.2034,-1824.68)"/>
    <path fill="#030303" d="m -1972.3715,1852.9787 c 0.03,-1.4407 -0.01,-4.8128 0.4473,-7.3235 0.7189,-3.9833 1.1666,-8.5371 2.4366,-31.0816 l 0.3264,-5.7957 -10.0713,0.5963 c -23.4328,1.3871 -77.2435,1.9328 -78.4223,0.7953 -1.3945,-1.3458 3.0373,-3.4142 7.3152,-3.4142 1.8804,0 2.6685,-0.6337 2.7091,-2.1782 0.032,-1.1981 0.162,-2.6684 0.29,-3.2674 0.128,-0.599 0.09,-6.7252 -0.085,-13.6139 -0.2821,-11.1157 -0.073,-12.7788 1.8585,-14.7828 1.9523,-2.0258 2.4258,-2.0978 4.6033,-0.7003 4.8512,3.1135 6.2153,12.2694 4.3755,29.3693 l -0.4395,4.0841 h 7.0316 7.0315 l 0.4307,-4.3991 c 0.5442,-5.5599 2.1468,-7.5811 6.011,-7.5811 3.7736,0 7.7304,4.4429 7.8905,8.8598 0.099,2.7411 0.5103,3.1204 3.3804,3.1204 2.9792,0 3.2557,-0.3213 3.1353,-3.643 -0.1304,-3.5974 2.3862,-7.248 4.9964,-7.248 2.2405,0 5.7865,4.2629 5.8886,7.0792 0.078,2.1611 0.6474,2.7228 2.7588,2.7228 2.351,0 2.6796,-0.538 2.8273,-4.6288 0.1569,-4.3425 0.3692,-4.6287 3.4345,-4.6287 3.0653,0 3.2984,0.2862 3.77,4.6287 0.2766,2.5458 0.8432,4.66 1.2594,4.6983 0.4162,0.038 2.3552,0.2263 4.3089,0.4179 l 3.5523,0.3484 -0.5079,-14.0162 c -0.5927,-16.3541 0.2412,-21.813 4.8094,-31.4828 l 3.3488,-7.0888 -1.4975,-32.6637 c -0.8236,-17.9651 -1.3023,-41.1419 -1.0635,-51.5041 0.4115,-17.8614 0.325,-18.9225 -1.6645,-20.4208 -1.9481,-1.4672 -1.9714,-1.6781 -0.3237,-2.9419 0.9763,-0.7487 3.2064,-2.1696 4.9557,-3.1574 2.9926,-1.6899 3.2044,-2.3014 3.5849,-10.3465 0.2224,-4.7028 0.4615,-9.5308 0.5312,-10.7288 0.1217,-2.088 -0.4544,-2.1677 -13.9133,-1.9241 -7.7222,0.1398 -14.1573,0.3848 -14.3004,0.5445 -0.143,0.1596 -0.2547,5.1915 -0.2483,11.1816 0.09,13.2511 -1.0137,11.5248 5.2647,11.8985 3.8729,0.7428 5.184,1.4581 4.9903,2.7228 -0.3276,2.1395 -8.3465,2.931 -11.7247,1.1574 -2.1885,-1.1489 -2.3371,-1.967 -2.4333,-13.4021 -0.071,-8.4187 -0.089,-13.2497 -1.105,-13.8618 -3.0439,-1.834 0.2802,-4.6413 5.9205,-16.7177 4.1673,-8.9225 9.0494,-18.7245 10.8491,-21.7822 3.1685,-5.3834 3.241,-5.8356 2.2895,-14.2724 -0.5404,-4.7921 -0.6045,-9.1506 -0.1423,-9.6857 1.409,-1.6313 14.2006,3.644 14.282,5.8901 0.083,2.295 -1.9902,3.2511 -7.0505,3.2511 -3.5973,0 -3.7176,0.1423 -3.5698,4.2209 0.084,2.3215 1.4425,6.916 3.0186,10.2099 2.6825,5.6063 9.1883,23.7946 10.9054,30.4886 0.4217,1.6437 1.1237,2.9335 1.56,2.8661 2.2248,-0.3439 3.5313,0.301 3.5845,1.769 0.033,0.9076 -0.9089,1.6336 -2.119,1.6336 -2.0446,0 -2.1519,0.7261 -1.7494,11.8334 0.3709,10.235 0.1446,12.2122 -1.6762,14.6386 -1.1577,1.5429 -2.9401,3.0734 -3.9609,3.4012 -1.6496,0.5296 -1.7943,2.5046 -1.3016,17.7624 0.3048,9.4416 0.9272,30.0603 1.3834,45.8194 0.456,15.759 1.1894,29.9076 1.63,31.4412 0.7918,2.7566 0.8575,2.7242 5.7841,-2.8545 4.877,-5.5225 4.9925,-5.8328 5.4181,-14.56 0.2393,-4.9044 0.9701,-12.0875 1.6242,-15.9625 0.654,-3.8748 0.5848,-7.3501 0.6324,-7.896 0.187,-2.1419 2.6404,-0.5909 7.5717,2.6889 6.8126,4.531 7.0114,6.9266 0.7077,8.5286 -5.2124,1.3245 -5.1551,1.1933 -6.1438,14.0704 -0.3964,5.1626 0.019,6.968 3.0081,13.0693 1.9074,3.8936 3.8686,8.672 4.3581,10.6188 0.8684,3.4538 1.0304,3.5396 6.6771,3.5396 6.6233,0 7.1307,0.5957 7.425,8.7154 0.1794,4.952 0.3867,5.3126 3.4346,5.9768 4.3289,0.9433 4.9626,3.0678 5.3635,17.9812 0.2453,9.1281 -0.3347,16.3644 -2.1393,26.6832 -1.3618,7.7871 -2.3112,15.1386 -2.1099,16.3367 0.9063,5.3916 0.7002,18.1387 -0.3264,20.1963 -0.9495,1.903 -1.4146,2.0443 -2.87,0.8717 -1.4096,-1.1357 -1.6566,-2.8771 -1.3105,-9.2403 0.2655,-4.8822 0,-8.0973 -0.6975,-8.5203 -1.304,-0.7883 -1.0503,-4.8065 1.6876,-26.7234 1.085,-8.6856 2.1631,-19.6014 2.3956,-24.2572 l 0.4229,-8.4652 -3.1129,0.2377 c -5.0236,0.3839 -5.809,-0.7493 -6.1009,-8.8035 -0.2642,-7.292 -0.3087,-7.3955 -3.1323,-7.2872 -2.7809,0.1068 -2.8647,0.3314 -2.8837,7.7337 -0.011,4.193 0.2971,9.6361 0.6838,12.0956 0.6841,4.3493 0.8123,4.4686 4.6832,4.3564 3.7352,-0.1084 4.0091,0.1056 4.4555,3.4793 0.392,2.9628 -0.2461,4.3435 -3.6304,7.855 l -4.106,4.2605 0.1768,22.4234 c 0.1501,19.0359 -0.1121,23.0219 -1.7356,26.3852 -2.2827,4.7289 -5.1228,6.3237 -4.1583,2.3351 0.3452,-1.428 0.345,-19.2139 -6e-4,-39.5243 l -0.6282,-36.9279 -12.9467,0.7693 c -18.6952,1.111 -17.8504,0.6935 -17.5611,8.6778 0.3518,9.7085 -1.6693,71.543 -2.3385,72.6933 -1.2699,2.3671 -4.1002,1.1849 -4.1847,-0.7244 z m -68.5879,-50.8521 c 1.2646,-9.4115 1.184,-22.4075 -0.1534,-24.7479 -0.7673,-1.3428 -1.7815,-2.0213 -2.2537,-1.5077 -1.4179,1.5419 -0.7623,29.7961 0.6914,29.7956 0.6821,-2e-4 1.4542,-1.5933 1.7157,-3.54 z m 27.6065,0 c -0.8649,-1.9468 -2.2517,-3.5397 -3.0818,-3.5397 -0.83,0 -1.7773,1.5929 -2.1049,3.5397 -0.5784,3.4374 -0.4895,3.5395 3.0818,3.5395 h 3.6775 z m 18.9698,2.9234 c -0.012,-0.3389 -0.6019,-1.6304 -1.3102,-2.8699 -1.033,-1.8077 -1.4661,-1.9552 -2.1885,-0.7452 -1.5015,2.5146 -0.9567,4.2312 1.3428,4.2312 1.198,0 2.1682,-0.2772 2.1559,-0.6161 z m 66.8913,-17.4827 c -0.033,-0.8985 -0.5383,-1.3308 -1.1239,-0.9606 -0.5856,0.3702 -1.0381,1.4083 -1.0055,2.3068 0.033,0.8985 0.5383,1.3308 1.1239,0.9606 0.5856,-0.3703 1.038,-1.4083 1.0055,-2.3068 z m -20.6301,-20.8023 c 10.7881,-0.615 11.1374,-0.7159 11.0476,-3.1937 -0.073,-2.0032 -0.6838,-2.5587 -2.8155,-2.5587 -1.4975,0 -2.7069,0.4377 -2.6875,0.9726 0.058,1.6129 -3.2067,2.3581 -5.3657,1.2246 -1.4665,-0.7699 -2.3753,-0.6189 -3.3019,0.5485 -1.6688,2.1026 -4.7186,2.0528 -6.5899,-0.1078 -1.3341,-1.5402 -1.6811,-1.4555 -3.3469,0.8168 -2.3684,3.231 -2.3534,4.603 0.04,3.6673 1.0336,-0.404 6.8925,-1.0204 13.0197,-1.3697 z m -3.437,-8.0976 c 1.1256,-1.9133 1.1018,-2.46 -0.1417,-3.2296 -2.0743,-1.2852 -2.6775,-1.1942 -4.1186,0.6215 -1.5081,1.9001 -0.2608,6.1429 1.5936,5.4213 0.7208,-0.2807 1.9203,-1.5465 2.6655,-2.8132 z m 7.4233,-0.9221 c 0.553,-2.4548 2.4039,-2.8194 4.4226,-0.8713 1.0533,1.0165 1.336,0.8019 1.2719,-0.9655 -0.061,-1.6926 -0.921,-2.3949 -3.3687,-2.7522 -3.7041,-0.5408 -6.3506,1.7813 -5.5403,4.8613 0.678,2.5773 2.6094,2.4137 3.2145,-0.2723 z m 1.3724,-9.0399 c 1.0436,1.0071 2.0858,1.6151 2.316,1.3513 0.841,-0.9638 -3.0756,-10.8814 -4.0531,-10.2634 -0.5545,0.3506 -2.432,2.8219 -4.1722,5.4919 -3.7438,5.7439 -2.9877,8.5365 1.1889,4.3912 2.6446,-2.6248 2.943,-2.6862 4.7204,-0.971 z m 7.8742,-39.9943 c 1.3961,-0.018 1.1686,-0.5166 -0.984,-2.154 -3.7204,-2.8299 -4.4549,-2.7178 -4.3325,0.6611 0.078,2.1416 0.5203,2.6768 1.8017,2.1782 0.9343,-0.3636 2.516,-0.672 3.5148,-0.6853 z m -25.2582,-95.2981 c 0.1807,-0.1593 -1.7433,-6.9786 -4.2753,-15.1542 -3.6726,-11.8584 -4.8633,-14.58 -5.8873,-13.4566 -0.706,0.7745 -4.4979,7.9355 -8.4266,15.9134 l -7.143,14.5052 12.702,-0.7591 c 6.986,-0.4175 12.8496,-0.8894 13.0302,-1.0487 z m -147.7848,238.7425 c -2.4905,-2.5527 -3.4263,-6.1922 -1.5922,-6.1922 0.9659,0 5.7745,6.6241 5.8252,8.0246 0.052,1.4274 -1.8598,0.5999 -4.233,-1.8324 z m -31.6229,0.5072 c -0.8649,-0.5684 -1.1965,-1.5965 -0.758,-2.3503 0.5542,-0.9526 3.4145,-1.2018 9.8958,-0.8623 8.96,0.4694 11.4204,1.1604 9.8678,2.7714 -1.1819,1.2264 -17.2433,1.5992 -19.0056,0.4412 z m 181.445,-2.047 c 0.239,-1.4309 1.3156,-1.9608 2.0555,-2.2074 1.8304,-0.6101 2.1038,1.4064 0.1795,3.9664 -1.5388,2.0472 -2.8254,1.7775 -2.4048,-0.7421 z m -143.0861,0.3535 c -1.2342,-2.9386 0.01,-4.6676 1.4894,-2.0741 0.8971,1.5699 0.9944,2.6132 0.2856,3.0612 -0.5913,0.3738 -1.3901,-0.07 -1.7751,-0.9871 z m 6.0967,-0.1049 c -0.033,-0.8986 0.4309,-1.6337 1.0299,-1.6337 0.599,0 1.1158,0.7351 1.1483,1.6337 0.033,0.8985 -0.4309,1.6336 -1.0299,1.6336 -0.599,0 -1.1157,-0.7351 -1.1483,-1.6336 z m 7.8493,0.4628 c 0.1912,-0.6439 0.8134,-1.1708 1.3825,-1.1708 0.569,0 1.2294,0.5269 1.4674,1.1708 0.2379,0.644 -0.3842,1.1708 -1.3825,1.1708 -0.9984,0 -1.6587,-0.5268 -1.4674,-1.1708 z m 48.186,0.7872 c -0.4133,-2.1851 -0.6747,-6.5312 -0.8088,-12.5707 -0.2434,-10.9597 -0.237,-10.9877 3.2701,-14.4125 4.4602,-4.3553 12.2334,-6.3217 21.9022,-5.5405 8.5346,0.6895 17.9244,2.818 18.5044,7.5448 0.095,0.7727 0.9389,5.1051 0.8931,12.2932 -0.078,12.1576 -0.2354,13.0693 -2.2616,13.0693 -2.0452,0 -2.2046,-0.7261 -2.6091,-11.8879 -0.3095,-8.5413 -0.8186,-12.016 -1.8086,-12.3432 -1.05,-0.347 -1.2683,2.5691 -0.9175,12.2509 0.3508,9.6807 0.1324,12.5983 -0.9173,12.253 -0.9844,-0.3239 -1.5672,-4.1594 -2.0408,-13.4324 -0.5529,-10.8285 -0.9489,-13.0374 -2.389,-13.3312 -1.4978,-0.3056 -1.6601,1.4715 -1.2266,13.4324 0.3824,10.5522 0.1763,13.6743 -0.8789,13.3145 -1.0204,-0.3479 -1.4543,-4.0496 -1.6705,-14.2492 -0.2505,-11.8108 -0.5333,-13.7792 -1.9808,-13.7792 -1.408,0 -1.5841,1.4026 -1.0594,8.4406 1.0831,14.5273 0.8243,19.8763 -0.9611,19.8763 -1.3576,0 -1.5734,-2.1315 -1.434,-14.1585 0.4744,-15.1973 0.072,-14.1721 -2.6121,-14.1584 -2.6508,0 -2.7267,0.1849 -1.6799,4.0842 1.3129,4.8905 1.699,12.275 1.0028,19.1797 -0.3722,3.691 -0.9941,5.053 -2.3075,5.053 -1.6023,0 -1.8059,-1.5521 -1.8704,-14.2638 -0.068,-13.4782 -0.1839,-14.2415 -2.0959,-13.8608 -1.61,0.3206 -1.9542,1.2877 -1.6846,4.734 0.6201,7.9278 1.2114,23.3585 -1.0835,23.3906 -2.0704,0.029 -1.1875,-5.9056 -1.4491,-13.1235 -0.4362,-12.0371 -0.6259,-13.0376 -2.2914,-12.0862 -1.538,0.8785 -1.7554,2.9252 -1.4213,13.375 0.3355,10.4912 0.1279,12.3731 -1.3617,12.6842 -1.7836,0.3724 -2.4537,-1.0404 -2.7512,-1.7777 z m 87.6866,-2.3733 c -0.064,-1.7558 2.7748,-3.4202 3.9305,-2.3049 0.8038,0.7757 -1.5415,3.9727 -2.9143,3.9727 -0.5257,0 -0.983,-0.7505 -1.0162,-1.6678 z m 7.7912,-0.022 c 0.1682,-1.0676 0.9575,-2.1607 1.7537,-2.4291 0.926,-0.3121 1.3375,0.2115 1.1418,1.4531 -0.1682,1.0676 -0.9575,2.1607 -1.7537,2.4291 -0.926,0.3121 -1.3375,-0.2115 -1.1418,-1.4531 z m -207.3331,-6.2058 c -0.1202,-3.1448 0.4834,-14.9206 1.3385,-26.1685 1.7205,-22.6306 1.517,-23.6584 -4.6843,-23.6584 -4.0445,0 -6.135,-1.666 -6.2553,-4.9854 -0.115,-3.1743 2.4311,-5.1665 6.4567,-5.0521 l 3.3003,0.094 -0.5586,-8.9142 c -0.1162,-8.5154 -3.5775,-8.9142 4.6643,-8.9142 5.3572,0 5.5993,0.1765 8.2153,5.99 1.0717,2.3817 1.2085,2.0065 1.0917,-2.995 -0.2072,-6.3999 -1.3487,-5.7179 4.7676,-5.7179 h 4.901 l -0.2717,-7.4967 c -0.2438,-6.7283 -0.5113,-7.5588 -2.6084,-8.1021 -2.2539,-0.5839 -2.337,-1.0709 -2.3444,-13.7409 -0.01,-12.1084 -0.1614,-13.1356 -1.9731,-13.1356 -1.4992,0 -1.9868,-0.8397 -2.0554,-3.5396 -0.2538,-9.9839 5.0099,-24.5663 17.0321,-47.1844 2.7806,-5.2312 3.6092,-8.3262 3.9609,-14.795 l 0.4449,-8.18 -5.8611,0.4875 c -9.2132,0.7664 -9.7083,-2.714 -1.0896,-7.6595 6.4473,-3.6995 8.4411,-3.7561 9.443,-0.2676 0.4785,4.0407 0.69,5.8137 0.9239,13.1499 0.2259,6.233 0.8522,8.7773 3.0966,12.5793 2.8932,4.9011 5.9533,15.9767 7.6929,27.8441 0.5661,3.862 1.591,6.9697 2.3994,7.2756 0.7762,0.2936 1.8204,2.5286 2.3207,4.9664 0.7698,3.7517 1.3128,4.4323 3.5364,4.4323 2.3755,0 2.6106,-0.4554 2.4548,-4.7541 -0.1104,-3.0471 0.5475,-5.7134 1.8324,-7.4257 1.8212,-2.4271 1.9547,-4.9305 1.4588,-27.3638 -0.449,-20.3229 -0.8176,-24.795 -2.082,-25.2726 -1.2073,-0.4559 -1.4763,-2.4411 -1.2557,-9.2682 0.1583,-4.8995 -0.1494,-8.688 -0.7055,-8.688 -2.0023,0 -1.0354,-4.1261 3.9561,-16.8812 2.8129,-7.1882 5.4786,-14.0496 5.9237,-15.2476 1.3214,-3.5566 1.4058,-13.4145 0.1255,-14.6501 -1.5885,-1.5329 1.1339,-1.5071 5.6677,0.054 4.3848,1.5095 4.5511,4.0716 0.368,5.6724 -2.8983,1.1092 -3.2054,1.7086 -3.0515,5.9566 0.117,3.2291 1.9098,8.4077 5.6671,16.3702 5.4695,11.5906 5.4971,11.7019 5.734,23.0824 0.1933,9.2892 -0.127,11.9568 -1.7068,14.2117 -1.5944,2.2759 -1.8975,4.9246 -1.6826,14.703 0.1442,6.5599 0.043,15.9345 -0.2242,20.8325 l -0.4865,8.9055 5.1647,-0.6143 c 9.6544,-1.1484 11.2059,4.1844 1.6022,5.5073 -2.6753,0.3685 -6.018,0.9623 -7.4283,1.3195 -4.2231,1.0696 -5.0206,-3.1371 -4.0385,-21.3007 0.4697,-8.6857 0.8346,-18.9778 0.811,-22.8714 -0.027,-4.3828 0.5425,-7.7973 1.4942,-8.9647 1.2413,-1.5226 1.2633,-2.2016 0.1148,-3.5277 -1.6917,-1.9531 -0.9499,-8.9059 1.0219,-9.5779 0.9959,-0.3394 0.936,-0.8817 -0.2497,-2.2575 -1.6626,-1.9295 -12.653,-2.6571 -13.6722,-0.9052 -0.2898,0.4981 -0.7471,4.2302 -1.0161,8.2935 -0.4664,7.044 -0.5023,6.8672 1.6549,6.6995 2.3753,-0.1846 2.1914,1.4949 3.4192,27.7301 1.3062,27.9103 1.2352,28.4289 -0.9546,29.0071 -1.8799,0.4963 -2.1987,1.4457 -2.0319,6.0497 l 0.1979,5.461 4.0567,-0.7578 c 12.0841,-2.2572 13.1326,-2.1883 14.4393,0.9495 0.6717,1.6129 1.3078,5.3221 1.4136,8.2428 0.203,5.6012 1.237,7.0552 4.3138,6.066 1.6304,-0.5242 1.8183,-2.1484 1.4438,-12.4813 -0.34,-9.3822 -0.076,-12.303 1.2576,-13.8983 1.3314,-1.5931 1.6982,-5.6069 1.7363,-19.0001 0.053,-18.7634 1.2022,-28.0714 3.7148,-30.0995 0.9111,-0.7354 1.7618,-2.7737 1.8904,-4.5294 0.2257,-3.0824 11.3276,-28.0481 21.7442,-48.898 l 5.0515,-10.1111 -0.6472,-14.3939 c -0.3561,-7.9166 -0.2815,-14.9829 0.1658,-15.7028 0.6012,-0.9679 3.2483,-0.3412 10.1581,2.4047 5.1396,2.0425 9.5064,4.1508 9.7039,4.6851 0.5666,1.5331 -2.3813,3.5393 -7.4114,5.044 -7.6679,2.2938 -10.4849,-0.2541 -3.539,-3.2008 2.1554,-0.9144 3.7146,-1.841 3.465,-2.059 -0.2496,-0.2179 -2.6469,-1.4828 -5.3272,-2.8107 l -4.8733,-2.4144 0.688,4.1864 c 0.3786,2.3026 0.5458,8.5347 0.3719,13.8492 -0.2248,6.8686 0.054,9.8028 0.965,10.1475 2.265,0.8573 8.267,12.6365 11.5637,22.6944 4.0277,12.2879 6.2766,32.0994 3.6439,32.0994 -2.4138,0 -3.8916,-2.1314 -4.9081,-7.0792 -1.7795,-8.6621 -1.4876,-8.502 -7.5662,-4.1491 -6.2459,4.4727 -17.689,13.5663 -17.6717,14.0433 0.044,1.2204 9.12,-1.4773 13.6,-4.0424 3.0056,-1.721 6.5932,-3.129 7.9725,-3.129 3.7115,-0.3718 1.8036,0.7796 0.049,2.7228 l -2.4593,2.7227 h 5.2074 c 4.1308,0 5.0925,0.3306 4.6517,1.5988 -0.3055,0.8794 -0.1287,1.8568 0.3929,2.1721 0.5216,0.3154 1.4306,4.4379 2.0198,9.1611 l 1.0714,8.5878 9.447,0.525 c 5.1958,0.2886 9.6139,0.3798 9.8179,0.2025 0.2042,-0.1775 0.613,-3.2858 0.9088,-6.9076 0.5496,-6.7297 1.3229,-8.716 2.8241,-7.2546 2.4518,2.3867 1.2569,47.3205 -1.7506,65.8347 -1.7869,11 -2.1984,12.0467 -4.0382,10.2714 -0.8488,-0.8192 -0.8574,-5.1083 -0.029,-14.6304 0.6445,-7.4093 1.3475,-17.4835 1.5621,-22.3872 l 0.3903,-8.9157 -3.9182,-0.7301 c -4.0503,-0.7547 -9.0594,0.5104 -13.3059,3.3604 -1.7827,1.1965 -2.4021,2.6745 -2.3001,5.4885 0.087,2.3978 0.5589,3.5859 1.2509,3.1485 1.5565,-0.9841 3.9101,1.5646 4.4528,3.9747 l 1.2755,5.6643 c 1.4894,6.6146 -1.4995,23.052 -2.5199,24.3376 -0.9217,1.1613 -1.5188,1.1958 -2.8023,0.1618 -1.3375,-1.0776 -1.5739,-3.4876 -1.314,-13.3915 l 0.317,-12.0773 -20.4287,2.9818 c -11.2357,1.64 -23.0008,3.0042 -26.1446,3.0315 l -5.716,0.05 0.2312,6.8069 c 0.1264,3.7438 -0.021,7.8946 -0.3286,9.2238 l -0.5603,2.4169 12.6184,-0.6775 c 10.431,-0.5601 12.6241,-0.4127 12.6508,0.8504 0.018,0.8404 2.0267,5.5603 4.4643,10.4887 l 4.4319,8.9607 6.5127,-0.6046 c 3.5821,-0.3324 12.1033,-1.3016 18.9362,-2.1537 6.8329,-0.8521 13.3086,-1.5492 14.3906,-1.5492 2.7801,0 6.7368,6.3863 6.1941,9.9977 -0.258,1.7173 0.1134,3.1569 0.9014,3.4978 0.8865,0.3834 0.533,1.1911 -1.0452,2.3877 -2.0957,1.589 -2.3499,2.7749 -2.0961,9.7794 0.2766,7.6327 -0.8099,11.0991 -2.3383,7.4599 -0.3965,-0.944 -0.8349,-4.862 -0.9742,-8.7066 l -0.2533,-6.9901 h -13.4542 c -7.3997,0 -16.3329,0.3065 -19.8515,0.6814 l -6.3975,0.6816 0.2994,13.9696 c -0.087,6.4234 -0.9062,13.822 3.1652,12.8649 5.5849,-0.7465 39.9226,-2.673 40.992,-1.0385 2.081,3.1806 -1.6246,3.8818 -22.5387,4.265 -26.5582,0.4865 -24.9399,1.5771 -25.0878,-16.906 l -0.1075,-13.4294 -18.7871,2e-4 c -11.5556,2e-4 -18.8021,-0.411 -18.8259,-1.0681 -0.057,-1.5618 3.1172,-2.0024 20.0477,-2.7829 8.3722,-0.386 15.4312,-0.9151 15.6866,-1.1759 0.669,-0.6829 -1.8234,-9.567 -5.1128,-18.224 l -2.8342,-7.459 -13.0445,0.6861 c -7.1744,0.3774 -17.437,1.1928 -22.8056,1.8121 -12.269,1.4152 -25.7631,0.945 -26.448,-0.9217 -0.3374,-0.9196 0.767,-1.3614 3.4032,-1.3614 2.1464,0 3.8836,-0.5231 3.8605,-1.1625 -0.024,-0.6499 -0.9517,-0.8705 -2.1047,-0.5003 -2.58,0.8284 -3.7995,-0.9236 -3.0553,-4.3892 1.0635,-4.9523 8.1463,-2.8646 8.3392,2.4579 0.084,2.3057 0.5603,2.505 5.9918,2.505 8.9494,0 9.3345,-0.331 9.0642,-7.7897 l -0.2343,-6.4675 -3.8336,0.7241 c -2.1084,0.3983 -7.1147,0.8746 -11.125,1.0585 -4.0103,0.184 -7.9028,0.3704 -8.65,0.4144 -0.7471,0.044 -1.3151,1.2763 -1.2621,2.7385 0.053,1.4621 -0.3828,2.9614 -0.9684,3.3316 -0.5933,0.3751 -0.8925,5.4271 -0.6756,11.4108 0.4168,11.5019 -5e-4,14.1833 -2.2073,14.1833 -2.1688,0 -2.7906,-4.0364 -2.2648,-14.703 0.2948,-5.9815 0.055,-10.3327 -0.6148,-11.1634 -0.7119,-0.8827 -0.7105,-1.8497 0,-2.75 0.6062,-0.7638 1.3554,-4.0156 1.665,-7.2263 0.084,-4.8212 0.4479,-5.8731 -4.7761,-4.8775 -12.2839,2.341 -18.9677,3.5574 -23.3835,4.1833 -4.7755,0.677 -5.1386,0.9551 -5.0336,3.8545 0.087,2.4114 0.6756,3.2043 2.5764,3.4729 1.7744,0.2507 2.5147,1.1093 2.6478,3.0708 0.1015,1.4975 0.4505,7.7463 0.7755,13.8862 0.4937,9.331 0.871,11.1633 2.2978,11.1633 1.2103,0 1.5292,0.6326 1.0959,2.1739 -0.3361,1.1956 0.1883,8.8326 1.1654,16.9713 2.7756,23.1196 1.1873,71.0624 -2.3117,69.7762 -0.645,-0.2371 -1.102,-0.8751 -1.0157,-1.4177 0.086,-0.5427 0.2023,-6.6086 0.2576,-13.48 l 0.1006,-12.4933 -4.8163,0.3841 c -3.0127,0.2402 -4.8326,-0.065 -4.8598,-0.8146 -0.025,-0.6895 1.9794,-1.1988 4.718,-1.1988 h 4.7613 l 0.2322,-15.1926 c 0.279,-18.2481 -0.3956,-21.8371 -4.1042,-21.8371 -2.3456,0 -2.6189,0.476 -2.4797,4.3181 0.1717,4.7382 -2.1822,6.9992 -6.6311,6.3691 -1.8525,-0.2624 -2.6676,-1.4047 -3.546,-4.9694 -0.9687,-3.9314 -1.5452,-4.6287 -3.8266,-4.6287 -2.2314,0 -2.5729,0.4148 -2.0173,2.4505 1.7244,6.3173 2.6172,16.92 1.4852,17.6357 -0.837,0.5291 -0.6767,1.4415 0.5443,3.0989 2.253,3.0584 2.7251,15.9371 1.3262,36.1714 -1.2988,18.7843 -1.7235,21.2377 -3.6769,21.2377 -1.1391,0 -1.6041,-1.5078 -1.7633,-5.7178 z m 0.1843,-55.2724 c -2.1908,-1.3834 -5.4957,-1.3834 -5.4456,0 0.022,0.599 1.632,1.0816 3.5785,1.0724 2.6855,-0.012 3.1358,-0.2713 1.8671,-1.0724 z m 173.8601,-36.5418 c 0.2034,-0.1895 -0.1933,-0.9894 -0.8816,-1.7776 -0.6882,-0.7882 -2.1464,-2.4703 -3.2404,-3.738 -1.9318,-2.2385 -2.2856,-2.2655 -12.2861,-0.9396 -5.6634,0.7509 -14.3277,1.7166 -19.254,2.146 -7.4656,0.6507 -8.9455,1.0943 -8.8886,2.6641 0.038,1.0358 0.3143,2.1208 0.6151,2.411 0.5823,0.562 43.3101,-0.1827 43.9356,-0.7659 z m -147.4152,-48.9582 c 2.119,0.5271 2.9874,0 4.5179,-2.7646 2.4403,-4.4011 0.6558,-6.6961 -2.5889,-3.3295 -1.2123,1.2579 -2.891,2.2871 -3.7303,2.2871 -0.8394,0 -2.5376,1.8379 -3.7738,4.0842 l -2.2477,4.0842 2.5998,-2.5069 c 1.8361,-1.7705 3.3703,-2.3153 5.223,-1.8545 z m 83.7007,-0.6476 c 13.9491,-2.007 19.221,-3.1836 10.8038,-2.4112 -3.8807,0.3561 -10.9266,0.946 -15.6575,1.311 -5.5818,0.4306 -8.7475,1.1583 -9.0167,2.0725 -0.2865,0.9728 0.3707,1.2455 2.1231,0.8809 1.3958,-0.2906 6.6822,-1.1244 11.7473,-1.8532 z m -67.4891,-4.625 c 1.4398,-1.1254 1.5781,-2.192 0.7128,-5.4972 -1.4222,-5.4333 -2.0599,-5.853 -2.7958,-1.8404 -0.3362,1.833 -1.0535,3.6123 -1.594,3.954 -1.4695,0.929 -1.037,4.8545 0.5305,4.8146 0.7481,-0.018 2.164,-0.663 3.1465,-1.431 z m 104.8116,-0.8222 c 1.339,-1.3127 -1.4656,-1.1426 -11.3563,0.6885 l -8.1138,1.5022 9.2354,-0.6056 c 5.0796,-0.3331 9.6851,-1.0464 10.2347,-1.5851 z m -34.262,-0.2624 c 10.1777,-1.3247 10.2959,-1.3749 10.1228,-4.2961 -0.9565,-16.1387 -1.2982,-19.2924 -2.0899,-19.2924 -1.4807,0 -3.1033,4.8814 -4.1532,12.4945 -0.5392,3.9102 -1.4202,7.1095 -1.9577,7.1095 -1.4034,0 -1.6829,-13.1493 -0.3727,-17.5355 1.3847,-4.6359 4.7568,-8.6031 7.3127,-8.6031 3.498,0 4.848,4.2523 5.282,16.6371 0.2874,8.1851 0.7735,11.5952 1.6082,11.2704 0.6582,-0.2562 4.4228,-0.8126 8.3657,-1.2365 7.0609,-0.7591 7.152,-0.811 6.0532,-3.4497 -0.6137,-1.4735 -1.212,-8.7714 -1.3296,-16.2175 -0.1914,-12.1044 -0.4094,-13.5385 -2.0583,-13.5385 -1.0144,0 -2.165,-0.4901 -2.5569,-1.0891 -1.1562,-1.7671 -8.9821,-1.3247 -9.6316,0.5446 -0.3122,0.8985 -1.3336,1.6336 -2.2697,1.6336 -0.9361,0 -2.0108,-0.7351 -2.3882,-1.6336 -1.1134,-2.6513 -6.752,-1.9809 -9.782,1.163 -2.4788,2.8893 -1.9238,4.9926 -5.2133,0.509 -1.6632,-2.2669 -3.0147,-2.0961 -5.3928,-1.1794 -1.5812,0.6096 -3.0503,1.7283 -3.2649,2.486 -0.2145,0.7578 -0.3101,9.0969 -0.2124,18.5313 0.1569,15.1453 0.38,17.1464 1.9042,17.0931 0.9495,-0.033 6.3605,-0.6636 12.0244,-1.4007 z m -7.213,-6.0258 c -0.3427,-0.5237 -1.0653,-4.376 -1.6059,-8.5607 -0.7145,-5.5316 -0.6217,-7.8368 0.34,-8.4448 2.1948,-1.3875 3.3156,1.7144 3.6358,10.0617 0.2719,7.0782 -0.6039,9.6429 -2.3699,6.9438 z m 27.11,-2.5184 c -1.1651,-3.1867 -1.9877,-10.9135 -1.4873,-13.9693 0.7282,-4.4461 3.0963,-4.098 4.1502,0.6102 1.4882,6.6484 -0.8422,18.3394 -2.6629,13.3591 z m -102.9366,1.1717 c -0.019,-0.5326 -0.4465,-0.9684 -0.9494,-0.9684 -0.8927,0 -3.3042,4.7922 -3.1771,6.3136 0.092,1.0984 4.1687,-4.1824 4.1265,-5.3452 z m 7.5669,-1.5694 c -0.087,-2.3967 -1.8758,-2.7371 -3.6502,-0.6946 -1.0606,1.2208 -1.3877,2.8631 -0.898,4.5078 l 0.7704,2.5875 1.9152,-2.476 c 1.0533,-1.3618 1.8915,-3.1278 1.8626,-3.9247 z m -3.5312,-7.2824 c -0.07,-1.9219 -2.5241,-0.1636 -3.3887,2.4276 -0.8535,2.5577 -0.8325,2.5675 1.2788,0.592 1.1806,-1.1047 2.13,-2.4635 2.1099,-3.0196 z m 5.244,-5.7055 c -0.8067,-3.3083 -1.8146,-6.0151 -2.2399,-6.0151 -0.4252,0 -1.2942,1.5272 -1.931,3.3937 l -1.1581,3.3936 2.224,-2.0322 c 2.2194,-2.0282 2.2227,-2.0249 1.654,1.5964 -0.3253,2.0712 0.01,4.6411 0.7777,5.9872 2.0302,3.5528 2.3497,0.5515 0.6733,-6.3236 z m 123.2668,-0.2031 c 5.2138,0.6149 5.2572,0.5935 5.1439,-2.5317 -0.063,-1.7334 -0.653,-3.4774 -1.3116,-3.8755 -0.6585,-0.3981 -5.0933,-1.0576 -9.8551,-1.4655 l -8.6577,-0.7418 0.2248,6.2035 0.2248,6.2034 4.4864,-2.2063 c 3.4026,-1.6732 5.7566,-2.0564 9.7445,-1.5861 z m -49.3372,-18.4421 c 1.4243,-0.9559 4.9256,-1.9125 7.7807,-2.1258 2.8551,-0.2133 7.4975,-0.719 10.3164,-1.1239 3.8794,-0.5573 5.8082,-0.2992 7.9345,1.0618 l 2.8093,1.798 -0.1958,-5.4022 -0.1957,-5.4022 -4.0631,0.5838 c -2.2346,0.3212 -10.144,1.8314 -17.5764,3.3561 -7.4324,1.5248 -15.098,3.0002 -17.0347,3.2787 -2.4781,0.3565 -3.5002,1.0858 -3.4504,2.462 0.059,1.6417 0.7438,1.8647 4.2657,1.39 2.5066,-0.3378 4.5142,-0.077 4.9887,0.6482 1.0326,1.5782 1.3429,1.5414 4.4208,-0.5245 z m -6.5648,-10.1443 c 0.9891,-0.5452 3.9288,-3.0629 6.5326,-5.595 5.7415,-5.5833 18.9796,-14.6631 22.7828,-15.6264 1.9407,-0.4916 2.733,-1.424 2.6595,-3.1299 -0.2306,-5.3489 -1.6224,-5.1645 -11.386,1.5085 -10.7185,7.3256 -16.1958,12.4141 -20.6729,19.2054 -3.1132,4.7224 -3.0978,5.3912 0.084,3.6374 z m -72.1998,-3.9567 c 0.8983,-2.5851 -0.029,-2.7176 -2.924,-0.4473 -0.8829,0.6924 -3.4876,2.071 -2.6311,2.0795 l 2.4855,0.025 c 1.2098,0.012 2.6746,-0.6514 3.0696,-1.6569 z m 97.8431,-26.0986 c 3.0241,-1.2829 3.8809,-2.2737 3.8039,-4.3983 -0.1476,-4.0737 -2.6514,-4.3152 -8.9635,-0.8648 -4.3489,2.3773 -6.2969,4.3502 -8.4296,8.5374 -1.5256,2.995 -2.7717,5.8169 -2.7692,6.2708 0,0.4538 2.8058,-1.1355 6.2297,-3.532 3.424,-2.3964 7.9819,-5.1023 10.1287,-6.0131 z m -53.8553,6.882 c -0.3791,-0.8689 -0.6279,-0.6108 -0.6341,0.6579 -0.01,1.1482 0.2751,1.7914 0.6238,1.4295 0.3488,-0.3619 0.3534,-1.3012 0.01,-2.0874 z m -5.1274,-7.1473 c -1.2736,-11.3211 -2.3705,-14.4065 -3.2301,-7.9567 -0.3549,2.6623 -1.3867,7.4613 -2.4238,10.6189 l -1.7245,5.2503 c 2.964,-0.655 5.6011,-0.2797 8.2685,0 z m 56.8796,-9.7998 c 1.3459,-0.294 2.6924,-0.9561 2.9921,-1.4713 0.6342,-1.0901 -2.0779,-9.6943 -3.0558,-9.6943 -0.3628,0 -1.8705,2.9846 -3.3506,6.6326 -2.2386,5.5174 -2.3836,6.5009 -0.862,5.85 1.006,-0.4304 2.9303,-1.023 4.2763,-1.317 z m -44.2164,227.8718 c -0.4337,-1.5098 -0.2604,-3.8036 0.3851,-5.0973 1.1349,-2.2745 1.2253,-2.2849 2.7378,-0.314 1.7143,2.2338 1.9744,3.809 1.0623,6.4337 -0.9153,2.6341 -3.3025,2.051 -4.1852,-1.0224 z m 13.2828,2.0678 c -1.2449,-1.2013 -1.1648,-6.9465 0.097,-6.9465 0.6178,0 1.394,0.6447 1.7248,1.4326 0.7774,1.8509 -0.7686,6.5301 -1.8216,5.5139 z m -48.1119,-2.1345 c -0.398,-0.9475 -1.1219,-12.7166 -1.6089,-26.1535 -0.5828,-16.0846 -1.3244,-25.0952 -2.1707,-26.376 -1.6636,-2.5179 2.5937,-11.8935 11.9615,-26.342 8.0872,-12.4733 10.4234,-15.2476 12.8399,-15.2476 2.1676,0 7.6236,10.6699 11.738,22.9549 1.8323,5.471 3.6557,8.8435 5.64,10.4315 2.8436,2.2757 2.9592,2.7738 3.8229,16.4822 0.6001,9.5244 0.4964,14.9257 -0.3177,16.5575 -2.4853,4.9812 -3.7978,0.5331 -4.3516,-14.7477 -0.3292,-9.0863 -0.9434,-14.622 -1.6174,-14.5785 -0.5976,0.039 -8.653,0.9001 -17.9009,1.9147 -16.9377,1.4279 -17.2082,0.6279 -16.4283,5.1032 1.8418,15.5503 3.0818,44.2739 2.0614,47.7473 -1.2514,4.2593 -2.5029,5.0284 -3.6681,2.254 z m 18.9316,-60.4194 c 5.6659,-0.6809 10.4957,-1.4323 10.7328,-1.6697 0.9338,-0.935 -8.1077,-25.506 -9.3767,-25.4818 -0.6557,0.012 -14.0563,19.4141 -18.3556,26.5753 l -1.9049,3.173 4.3014,-0.6794 c 2.3657,-0.3736 8.9371,-1.2365 14.603,-1.9174 z m 92.1122,58.3222 c -0.6956,-1.6561 0.6636,-7.0697 1.7749,-7.0697 1.1114,0 2.8629,5.4136 2.2874,7.0697 -0.3141,0.9038 -1.2013,1.6432 -1.9717,1.6432 -0.7703,0 -1.7111,-0.7394 -2.0906,-1.6432 z m 7.6125,-1.2611 c -1.2305,-1.1875 -1.0285,-5.619 0.2943,-6.4553 1.9434,-1.2286 4.4132,2.7387 3.2083,5.1536 -1.0524,2.1093 -2.2172,2.5421 -3.5026,1.3017 z m 25.1231,-7.9884 c -0.1821,-5.0243 2.5434,-6.1827 3.8493,-1.6361 0.9891,3.4439 0.1285,5.9925 -2.0236,5.9925 -1.2198,0 -1.7103,-1.1704 -1.8257,-4.3564 z m -181.6857,-1.2697 c 0.5014,-1.6878 3.9136,-1.9717 4.3738,-0.364 0.1714,0.5991 -0.8397,1.2529 -2.2469,1.4531 -1.7542,0.2494 -2.4229,-0.093 -2.1269,-1.0891 z m 1.3168,-7.0801 c -1.6435,-1.586 -0.6728,-2.6682 2.1002,-2.3413 3.767,0.444 4.8653,3.0674 1.2843,3.0674 -1.4477,0 -2.9707,-0.3268 -3.3845,-0.7261 z m 52.3316,-11.5134 c -1.1673,-2.8029 -0.3129,-10.1332 1.6365,-14.0401 2.6754,-5.3622 9.7448,0.505 10.0281,8.3229 0.1922,5.3045 -1.176,6.9039 -6.6737,7.8013 -3.3943,0.5541 -3.9971,0.3023 -4.9909,-2.0841 z m 5.7385,-1.4908 c 2.4808,-0.9654 1.7235,-10.23 -0.8361,-10.23 -1.0396,0 -3.0384,6.0427 -2.9357,8.8754 0.077,2.1221 0.9728,2.4439 3.7718,1.3546 z m -34.303,-7.967 c 0.1,-2.8926 0.762,-5.0148 1.6573,-5.3132 1.1816,-0.3938 1.3615,0.3793 0.8672,3.7272 -0.9292,6.293 -2.7263,7.4219 -2.5245,1.586 z m 158.3236,1.9066 c -1.3922,-4.8471 -0.6542,-13.427 1.1546,-13.427 1.3121,0 1.6291,1.3838 1.6105,7.0304 -0.025,7.5558 -1.4712,10.9016 -2.7651,6.3966 z m -58.0323,-23.7736 c -0.2193,-6.0506 0.061,-7.6237 1.3574,-7.6237 1.2966,0 1.6907,1.5731 1.91,7.6237 0.2192,6.0507 -0.061,7.6238 -1.3575,7.6238 -1.2965,0 -1.6906,-1.5731 -1.9099,-7.6238 z m 9.7395,5.0175 c -0.695,-3.0564 0.1579,-12.2736 1.2396,-13.3959 1.701,-1.7649 3.0373,2.0539 2.9668,8.4781 -0.059,5.3867 -0.4729,7.0337 -1.8328,7.2943 -1.1461,0.2198 -1.971,-0.6062 -2.3736,-2.3765 z m 13.652,1.8248 c -1.4522,-0.5151 -2.1704,-8.7006 -1.1498,-13.1047 1.3951,-6.0197 4.6941,-0.4239 5.058,8.5796 0.1259,3.1318 -1.7406,5.2937 -3.9082,4.5251 z m -123.9278,-6.2122 c -1.4637,-3.4852 -1.3229,-12.8346 0.1859,-12.3443 1.6927,0.5501 2.6511,8.1282 1.474,11.6555 -0.7485,2.2433 -0.9687,2.3346 -1.6599,0.6888 z m 63.9475,-4.8333 c -1.5762,-4.4574 1.768,-7.3603 4.6483,-4.035 1.0056,1.161 1.0657,2.1434 0.2332,3.8119 -1.3954,2.7967 -3.9304,2.9125 -4.8815,0.2229 z m 11.959,0.9259 c -1.0712,-1.6373 0.3376,-5.6194 1.8182,-5.1395 2.022,0.6555 2.5075,6.2384 0.5425,6.2384 -0.9029,0 -1.9652,-0.4945 -2.3607,-1.0989 z m -21.6206,-0.7163 c -0.4138,-0.3994 -0.7938,-1.8697 -0.8445,-3.2674 -0.1133,-3.1273 2.7227,-3.4059 3.7953,-0.3727 1.1423,3.2301 -0.8408,5.6763 -2.9508,3.6401 z m -60.0183,-33.8017 c -1.5706,-2.4004 -2.2109,-9.1833 -1.2546,-13.2875 0.8894,-3.8167 1.4778,-4.5399 3.4638,-4.2575 3.2114,0.4565 5.7497,5.6174 6.0598,12.3203 l 0.2519,5.4456 -3.9709,0.332 c -2.184,0.1824 -4.2315,-0.066 -4.5499,-0.5529 z m 3.0395,-6.5654 c -0.3144,-1.0596 -0.5367,-0.4563 -0.4938,1.3407 0.043,1.797 0.3003,2.6641 0.5719,1.9267 0.2715,-0.7374 0.2365,-2.2077 -0.078,-3.2674 z m 38.0555,-5.2125 c -0.3625,-2.3686 -0.1429,-3.6875 0.5724,-3.4558 1.4674,0.4747 2.4514,7.2862 1.0525,7.2862 -0.5714,0 -1.3026,-1.7237 -1.6249,-3.8304 z m 31.2663,-4.5192 c -0.4138,-0.3993 -0.8027,-2.1147 -0.8642,-3.8119 -0.097,-2.6773 0.3053,-3.0858 3.0389,-3.0858 1.8685,0 3.4453,0.7012 3.8744,1.7227 0.9683,2.3058 0.9831,2.2372 -0.8986,4.1896 -1.7325,1.7977 -3.8826,2.209 -5.1505,0.9854 z m 29.327,-2.1782 c -1.6124,-1.5561 -0.715,-3.5404 2.2922,-5.0682 3.2374,-1.6448 4.3714,-1.3912 4.458,0.997 0.11,3.037 -4.7711,5.981 -6.7502,4.0712 z m -14.569,-2.011 c -1.0239,-2.4379 3.2073,-6.9214 4.9473,-5.2423 0.6802,0.6564 1.1147,2.3527 0.9656,3.7695 -0.3304,3.1388 -4.7508,4.2398 -5.9129,1.4728 z m 58.6187,-9.4306 c -1.1394,-3.9669 -0.5424,-6.8918 1.4066,-6.8918 2.205,0 2.8133,4.9291 0.9407,7.6235 -1.4769,2.1251 -1.5316,2.108 -2.3473,-0.7317 z m 1.0222,-22.8717 c 0.1996,-5.3268 2.7961,-7.2186 2.979,-2.1704 0.144,3.9718 -0.7196,6.7145 -2.114,6.7145 -0.5694,0 -0.9586,-2.0449 -0.865,-4.5441 z m -0.4757,-17.8197 c -0.948,-2.2574 0.5626,-7.5138 2.0807,-7.24 1.5976,0.288 1.635,8.1004 0.041,8.6381 -0.7394,0.2494 -1.6943,-0.3797 -2.122,-1.3981 z m -109.4516,-20.0759 c -0.9762,-1.492 0.1656,-11.9341 1.3896,-12.7078 2.6591,-1.6811 4.5528,5.7186 2.9355,11.4711 -0.6675,2.3741 -3.1218,3.0759 -4.3251,1.2367 z m -4.0839,-6.8971 c -0.1443,-3.9811 0.2046,-5.1188 1.5694,-5.1188 1.4352,0 1.6451,0.744 1.1523,4.0841 -0.9309,6.3106 -2.5088,6.9104 -2.7217,1.0347 z m 111.5625,0.8518 c -1.0629,-3.7007 -0.3531,-14.6501 1.0436,-16.0994 1.9688,-2.0429 4.519,1.3616 4.6277,6.178 0.2027,8.9847 -3.8859,16.1374 -5.6713,9.9214 z m -7.2108,-6.4509 c -0.2037,-5.6214 0.9381,-8.4467 2.4684,-6.1078 0.987,1.5086 -0.1543,12.0337 -1.3048,12.0337 -0.5219,0 -1.0455,-2.6667 -1.1636,-5.9259 z m 17.1328,1.9325 c -1.5049,-1.4523 -1.036,-8.8173 0.6535,-10.2629 1.4424,-1.2342 1.9353,-1.1456 3.2652,0.5873 1.3928,1.8148 1.4429,4.3812 0.1763,9.0402 -0.3955,1.4547 -2.8513,1.8357 -4.0951,0.6354 z" transform="translate(-184.67926,269.61036) translate(2345.2034,-1824.68)"/>
</svg>