<?xml version="1.0" ?><svg xmlns="http://www.w3.org/2000/svg" width="205.44814mm" height="384.72583mm" viewBox="0 0 205.44814 384.72583">
    <path d="m 895.48362,4431.7661 c 1.14879,4.4545 3.54629,7.316 5.94378,7.6131 2.3975,0.2969 7.54211,0.2969 7.54211,0.2969 0,0 89.45645,5.8854 91.50429,5.4533 2.0478,-0.4318 4.4453,-10.0967 3.5962,-11.2577 -0.8491,-1.1608 -22.70229,-7.1597 -24.00094,-12.8289 -1.29866,-5.6695 -2.99686,-20.8687 -21.07795,-22.0564 -18.0811,-1.188 -30.5181,14.2541 -37.36094,17.0889 -6.84284,2.8347 -17.88131,2.9157 -22.87606,6.5063 -4.99478,3.5907 -3.27049,9.1845 -3.27049,9.1845 z" fill="#fff" paint-order="fill markers stroke" transform="translate(15.889328,100.49434) translate(-848.8828,-4490.1674)"/>
    <path d="m 920.75717,4438.7852 c -3.69612,5.1295 -4.49529,22.1105 -1.14879,28.9407 3.3465,6.8302 4.24556,13.0934 12.7367,13.9846 8.49111,0.8908 15.98327,0.4857 20.17887,-1.5931 4.19563,-2.0786 5.49426,-5.6422 7.94171,-8.6929 2.44744,-3.0506 3.04683,-30.8306 3.04683,-30.8306 z" fill="#dec39e" paint-order="fill markers stroke" transform="translate(15.889328,100.49434) translate(-848.8828,-4490.1674)"/>
    <path d="m 965.33104,4487.2923 -9.42823,0.3223 -3.40902,19.5249 0.38241,43.8588 c 0,0 10.79402,47.7072 13.77952,53.5828 2.9855,5.8754 13.856,20.5636 13.856,20.5636 l 1.37769,-22.8395 c 0,0 -7.34883,-2.9379 -9.10952,-6.3722 -1.76067,-3.4343 -4.89944,-10.0128 -4.89944,-10.0128 l 9.33948,-2.5239 c 0,0 -4.36335,-21.185 -1.76062,-24.5365 2.60276,-3.3515 9.5687,-4.0137 10.94662,-4.055 1.37793,-0.042 5.66477,-46.3414 5.66477,-46.3414 0,0 -4.43983,0.5378 -11.9419,-0.6206 -7.50207,-1.1586 -13.98031,-2.7366 -15.81755,-6.2121 -1.83724,-3.4755 1.01979,-14.3384 1.01979,-14.3384 z m -52.36389,7.9406 c 0,0 -4.43227,13.1486 -5.69799,13.8325 -1.26568,0.6843 -3.85248,-0.7787 -3.85248,-0.7787 0,0 -4.99228,2.1667 -7.31273,1.3684 -2.32042,-0.7979 1.05461,54.5006 1.26556,58.7194 0.21095,4.2185 -5.27356,30.1394 -6.3283,32.1536 -1.05473,2.0143 -5.83634,31.431 -4.8519,39.2984 0.98443,7.867 4.43005,21.5115 5.76606,21.7015 1.33602,0.1902 3.93747,-9.1594 4.4297,-14.6705 0.4922,-5.5109 18.56346,-71.7178 21.02456,-76.1266 2.46107,-4.4088 3.79701,-34.7754 3.16415,-37.3977 -0.63286,-2.6225 6.6348,-41.6312 6.28322,-45.3557 z" fill="#804141" paint-order="fill markers stroke" transform="translate(15.889328,100.49434) translate(-848.8828,-4490.1674)"/>
    <path d="m 981.06672,4481.5844 c -6.93421,0.036 -10.95392,2.2752 -14.7797,4.2742 0,0 -5.13904,9.4037 -4.66295,12.2712 0.47609,2.8673 7.31006,7.3663 7.31006,7.3663 0,0 1.97231,1.434 3.67265,2.3529 1.70034,0.9192 5.50922,-0.956 5.50922,-0.956 0,0 -0.34019,2.5736 2.24431,2.8675 2.58452,0.2942 4.14922,-2.5367 4.01319,-1.0294 -0.13602,1.5071 5.50907,0.8825 6.86935,-0.9188 1.36025,-1.8013 1.42833,-2.0955 3.1967,-0.4046 1.76834,1.691 5.37278,-2.757 5.37278,-2.757 0,0 4.96507,-1.6542 4.96507,-4.2643 0,-2.6101 -3.2649,-11.4699 -5.71334,-14.8885 -2.44846,-3.419 -8.22948,-3.6765 -16.52714,-3.8969 -0.51861,-0.014 -1.00792,-0.019 -1.4702,-0.017 z m -76.07184,2.0733 c -5.83961,0.072 -17.3034,2.3641 -19.44584,4.4871 -2.44848,2.4265 -4.96455,14.8518 -4.96455,14.8518 0.20404,2.7572 -1.49665,3.4921 2.17609,4.8891 3.67275,1.3969 3.46899,-0.6984 7.68584,0.478 2.83551,0.7909 4.31623,0.02 4.98315,-0.5705 -0.62369,0.8307 -1.38304,2.3872 1.27383,2.8127 3.67274,0.5882 6.46162,-2.4262 6.46162,-2.4262 0,0 0.46276,2.1411 4.31045,2.4452 5.46706,0.4322 5.05024,-14.8164 5.05024,-14.8164 l 6.44697,-10.2691 c -0.56111,-0.087 -13.14357,-1.892 -13.9778,-1.8817 z m 23.65179,78.4882 v 24.8864 l 19.1549,-0.3122 -0.36638,-17.6976 -0.56173,-5.7464 0.44132,-0.07 -0.0191,-0.9333 z m 12.57287,8.154 1.77251,9.3049 -6.66678,0.9576 -1.603,-9.5323 z" fill="#c1a73b" paint-order="fill markers stroke" transform="translate(15.889328,100.49434) translate(-848.8828,-4490.1674)"/>
    <path d="m 921.89566,4560.8592 -6.83524,22.5314 13.58625,4.4695 v -25.9979 z m 32.48794,1.2309 -7.51014,1.186 2.19418,22.4405 8.43825,-0.7757 z m -13.16406,8.2098 -6.49727,0.7302 1.603,9.5323 6.66678,-0.9576 z" fill="#802c00" paint-order="fill markers stroke" transform="translate(15.889328,100.49434) translate(-848.8828,-4490.1674)"/>
    <path d="m 891.63499,4665.1971 c 7.88482,-3.5996 5.20554,-6.7442 13.62623,-10.3438 8.42068,-3.6 12.01859,-6.2479 21.28136,-7.4893 9.26277,-1.2412 25.95102,-2.1101 31.46274,-2.1516 5.51172,-0.041 24.5731,4.9239 25.87448,6.0825 1.30138,1.1583 -2.75585,-26.2742 -2.75585,-26.2742 l -15.54001,-14.2335 c 0,0 -14.16209,11.9993 -24.8793,9.6409 -10.71724,-2.3585 -31.23308,-20.8953 -31.23308,-20.8953 0,0 -11.40622,35.0044 -13.93243,45.6383 -2.52622,10.6336 -3.90414,20.026 -3.90414,20.026 z" fill="#4c2626" paint-order="fill markers stroke" transform="translate(15.889328,100.49434) translate(-848.8828,-4490.1674)"/>
    <path d="m 925.05662,4491.9152 c 0,0 -3.77076,40.3172 -3.77076,44.7233 0,4.4061 -0.80843,25.0163 -0.80843,25.0163 0,0 13.0025,1.4203 19.06588,1.2745 6.06335,-0.1455 14.34994,-2.0391 14.34994,-2.0391 l -0.80844,-37.215 0.39257,-33.3284 c -5.65911,0.8082 -12.3454,1.5684 -28.42076,1.5684 z" fill="#517267" paint-order="fill markers stroke" transform="translate(15.889328,100.49434) translate(-848.8828,-4490.1674)"/>
    <path d="m 982.19017,4555.6104 c -2.67816,-0.01 -6.82407,1.1759 -8.03414,3.1378 -1.61342,2.6162 4.08089,23.443 4.08089,23.443 l 11.48354,-0.9746 c 0,0 -3.89118,-24.0586 -5.50457,-25.1871 -0.40335,-0.2822 -1.133,-0.4167 -2.02572,-0.4191 z m -67.66564,28.7729 -4.55734,14.4183 c 0,0 14.48663,17.3219 28.8618,19.1042 14.37516,1.7822 28.86129,-4.4255 28.86129,-4.4255 l -9.18807,-27.2743 c 0,0 -25.4158,1.181 -29.86174,1.341 -4.44592,0.1604 -9.85525,-2.3226 -14.11594,-3.1637 z m -10.25932,96.2743 c 0,0 -1.64478,11.1327 -0.23513,14.8998 1.40965,3.7672 6.81354,57.567 6.81354,57.567 0,0 -13.00002,10.1588 -17.22892,12.6985 -4.22891,2.5398 3.52382,5.5027 9.55394,4.6984 6.03013,-0.8043 23.80733,-10.8784 23.80733,-10.8784 l 1.40973,-77.3343 z m 71.78735,5.2074 c -6.63826,-0.012 -14.77533,0.5498 -14.77533,0.5498 -2.19277,4.1058 9.55446,72.932 9.55446,72.932 0,0 10.33705,5.6719 15.74064,7.7039 5.40358,2.0317 20.98817,3.7673 23.18097,0.4233 2.1927,-3.3438 -18.09032,-12.6566 -18.09032,-12.6566 0,0 -5.16905,-66.2864 -7.36183,-68.0641 -0.82229,-0.6667 -4.26563,-0.8809 -8.24859,-0.8883 z" fill="#806a50" paint-order="fill markers stroke" transform="translate(15.889328,100.49434) translate(-848.8828,-4490.1674)"/>
    <path d="m 865.86704,4591.2708 c 0,0 -6.83329,10.0031 -8.82634,13.44 -1.99306,3.437 -0.37981,8.6182 2.65721,11.7987 0,0 2.46743,1.3848 6.2637,0.3587 3.79628,-1.026 13.0023,-9.9514 13.0023,-9.9514 z m 115.59656,7.6434 c 0.37965,5.4887 0.66423,28.3164 0.75913,29.9579 0.0949,1.6414 5.7895,36.1649 6.45387,38.0628 0.66436,1.8981 3.1321,3.0261 3.1321,3.0261 l 4.65037,-0.3586 -2.65772,13.2343 7.21295,1.2315 c 0,0 -2.27743,7.1815 -0.6641,8.9767 1.6134,1.7954 12.2429,15.8513 18.1271,19.9549 5.8842,4.1037 12.1481,9.2335 12.1481,9.2335 l -4.9351,-18.9286 -25.1504,-79.3062 -5.88434,-23.443 z" fill="#97979d" paint-order="fill markers stroke" transform="translate(15.889328,100.49434) translate(-848.8828,-4490.1674)"/>
    <path d="m 985.07013,4599.0682 c -3.41664,0 -11.19904,1.7952 -12.90738,-1.539 -1.70831,-3.3343 -3.03699,-11.7473 -3.03699,-11.7473 l 21.06935,-3.0776 z" fill="#5c553a" paint-order="fill markers stroke" transform="translate(15.889328,100.49434) translate(-848.8828,-4490.1674)"/>
    <path d="m 930.52128,4463.5672 20.67936,-0.8279 c 0,0 -3.8295,9.19 -10.95241,8.9419 -7.12287,-0.2485 -10.72258,-3.2706 -11.48849,-4.8022 -0.76595,-1.5317 1.76154,-3.3118 1.76154,-3.3118 z" fill="#fff" paint-order="fill markers stroke" transform="translate(15.889328,100.49434) translate(-848.8828,-4490.1674)"/>
    <path d="m 955.48705,4389.674 c -10.24334,-0.065 -17.12039,3.224 -24.5356,11.7489 -3.07896,3.5403 -7.75679,7.8872 -10.39654,9.6602 -4.46458,2.9982 -5.27897,3.1853 -11.7012,2.6752 -5.58112,-0.4427 -7.5221,-0.1704 -10.13751,1.4197 -5.03634,3.0634 -6.97336,6.845 -6.97336,13.6176 0,9.6279 4.2172,12.4976 18.36076,12.4976 h 8.52779 l -0.65405,3.2671 c -0.3593,1.797 -0.6522,3.9142 -0.6522,4.7056 0,0.9832 -1.34302,1.438 -4.25979,1.438 -3.48774,0 -4.19682,0.3291 -3.91927,1.8283 0.18706,1.0064 1.86769,2.5021 3.73539,3.325 3.19616,1.4073 3.39751,1.8129 3.39751,6.8521 0,3.6952 0.85646,7.0782 2.76225,10.9035 2.49767,5.0115 3.47689,5.8859 10.16609,9.0914 9.42657,4.5175 16.57984,4.799 24.24482,0.9514 5.16837,-2.5945 9.87716,-7.9915 9.87716,-11.3218 0,-2.1442 0.92314,-2.1867 3.59754,-0.1637 2.06957,1.565 5.37422,1.7182 7.8367,0.9435 0.16404,0.059 0.32332,0.123 0.50429,0.182 4.14761,1.3496 6.2656,-0.065 6.2656,-0.065 0,0 3.52372,3.716 6.61353,4.0507 3.09006,0.3355 5.83406,-2.6889 5.83406,-2.6889 0,0 2.13122,4.2577 4.20873,4.3444 2.07755,0.089 6.86915,-2.7286 6.86915,-2.7286 0,0 1.2856,4.092 4.2116,5.4782 2.9263,1.3867 6.2764,-0.1037 6.2764,-0.1037 0,0 -1.0784,2.8842 0.7523,5.892 1.8303,3.0078 4.8937,2.4966 4.8937,2.4966 0,0 -1.1211,4.9731 -1.7047,7.9364 -0.5845,2.9634 2.9173,4.2812 2.9173,4.2812 0,0 -3.4483,4.1932 -3.932,6.5522 -0.4829,2.3577 3.0607,4.6508 3.0607,4.6508 0,0 -2.4466,4.4826 -1.8674,7.6457 0.5805,3.1642 7.9475,5.8454 13.2133,4.5297 5.2657,-1.3166 7.5176,-3.6637 3.5271,-4.5128 -3.9902,-0.848 -5.5261,-3.1543 -5.7615,-5.4372 -0.2355,-2.2817 -4.572,-3.0474 -4.572,-3.0474 0,0 2.9956,-0.2329 3.285,-3.5195 0.2903,-3.2875 -2.2542,-6.0497 -2.2542,-6.0497 0,0 1.9846,-2.2021 1.5684,-6.4172 -0.4162,-4.2154 -1.974,-5.8552 -1.974,-5.8552 0,0 0.2196,-5.4872 -1.8111,-8.2497 -2.0302,-2.7623 -5.253,-3.8855 -5.253,-3.8855 0,0 -1.6476,-4.1383 -5.0584,-6.0208 -3.4115,-1.8828 -7.5924,-0.4273 -7.5924,-0.4273 0,0 -2.5472,-4.6524 -5.9196,-4.5945 -3.37234,0.059 -7.15694,2.9527 -7.15694,2.9527 0,0 -2.53735,-3.9351 -4.42939,-4.3971 -1.89282,-0.4625 -6.92255,3.5132 -6.92255,3.5132 0,0 -0.0159,-4.367 -2.74082,-5.5806 -0.91176,-0.4054 -1.32133,-1.5626 -1.53379,-2.9274 2.87364,-2.6522 4.9149,-6.541 4.9149,-10.5627 v -4.0285 h 10.88416 c 10.81593,0 10.90293,-0.021 13.52893,-3.1411 3.588,-4.2643 4.559,-11.1824 2.2511,-16.0452 -2.037,-4.2926 -10.31083,-9.0434 -15.75039,-9.0434 -4.71276,0 -8.38015,-3.3552 -12.40632,-11.3496 -6.30634,-12.524 -13.37574,-17.1805 -26.21624,-17.2675 z m 0.55325,12.9331 c 4.01743,0 6.76037,0.716 9.99066,2.6096 4.63127,2.7138 6.20104,5.6311 7.1628,13.3083 1.0078,8.0357 3.03319,9.7756 13.19504,11.3308 4.28122,0.6546 8.66246,1.9666 9.73534,2.9157 2.64742,2.3431 3.93436,6.0507 3.16521,9.1159 -1.20597,4.8054 -5.63933,2.6551 -5.63933,-2.7355 0,-2.5823 -3.41418,-4.3458 -10.25075,-5.2914 -9.12548,-1.2629 -12.29386,-4.5947 -14.23802,-14.9728 -1.09538,-5.8502 -6.10182,-10.5428 -12.2264,-11.4609 -7.27815,-1.0906 -13.02702,1.3089 -18.59174,7.7623 -2.52968,2.9327 -6.71486,6.9472 -9.29984,8.921 -4.40981,3.3665 -5.19774,3.5901 -12.70635,3.5901 -4.83208,0 -8.50132,0.4977 -9.2583,1.2547 -0.68977,0.6895 -1.25624,3.239 -1.25624,5.6636 0,4.671 -1.34038,6.0003 -4.44288,4.4051 -2.28468,-1.1758 -2.44872,-7.0938 -0.31062,-11.2279 2.10529,-4.0724 6.46774,-5.6496 13.28499,-4.8067 7.78431,0.9639 10.61138,-0.4357 19.72919,-9.7649 8.64393,-8.8432 12.31318,-10.617 21.95724,-10.617 z m -31.39758,39.2084 c 1.70127,0 2.04312,-0.068 3.40837,0.1198 -1.27794,0.6115 -1.15465,2.5149 -1.14353,3.3634 0.0238,1.9079 -0.10002,3.447 2.09232,3.1358 1.89442,-0.268 2.43099,-0.9884 2.39845,-3.2199 -0.0185,-1.197 0.25056,-2.149 -0.62442,-3.0533 0.99431,-0.016 2.13096,0.186 3.23877,0.1921 2.66567,0.016 6.16267,0.2225 7.40145,0.3635 -0.55562,0.9327 -0.58129,1.973 -0.82285,3.2382 -0.25347,1.3267 0.0741,2.7419 0.72919,3.1462 1.79758,1.1115 4.06797,-0.2902 3.89546,-3.4301 -0.0426,-0.7749 0.39793,-1.6629 -0.42757,-2.4907 1.4986,-0.062 2.54159,-0.08 3.66263,0.1389 2.794,0.545 4.23227,3.5951 2.33495,4.7683 -1.74308,1.0766 -1.17528,2.5974 0.70088,1.8772 1.32583,-0.5083 2.27012,0.3056 1.07844,1.0784 -1.81769,1.179 -0.82788,2.4585 0.8636,1.7511 0.7792,-0.326 1.13956,0.114 1.53617,1.0461 0.2249,0.5287 0.46937,1.0438 1.04458,1.0438 0.36089,0 0.93027,-0.7173 0.55747,-1.6071 -0.5035,-1.2017 -0.41989,-1.5396 0.0558,-1.7843 1.5076,-0.7758 1.79097,-2.8155 -0.68368,-1.8354 -0.58023,0.2299 -1.16311,-1.0489 -0.47758,-2.0064 1.29461,-1.8079 0.36989,-2.0026 -1.1803,-2.2198 -1.05357,-0.1477 -0.15161,-0.8142 2.0238,-0.8803 2.7088,-0.083 4.15157,0.3955 4.58231,1.519 1.04432,2.7207 -1.65232,22.5975 -3.59118,26.4705 -0.99431,1.9875 -3.44832,4.4733 -5.45307,5.525 -7.10327,3.7296 -19.54688,2.2408 -25.37804,-3.0361 -3.74491,-3.3885 -6.5487,-18.0528 -3.45175,-18.0528 2.56037,0 2.99032,-2.137 0.90937,-4.5209 -1.26603,-1.4505 -1.97035,-3.791 -1.93992,-6.4574 0.0442,-3.7513 0.31485,-4.1828 2.65985,-4.1828 z m 24.833,17.3442 c -2.44343,0.05 -8.44259,0.6429 -13.33077,1.32 -8.03777,1.1118 -8.92016,1.4587 -9.22893,3.6282 -0.46328,3.2441 2.04444,6.7985 6.26401,8.8771 5.0165,2.4717 11.46996,2.2558 14.97436,-0.5011 3.04006,-2.3919 5.76421,-7.7283 5.76421,-11.2925 0,-1.8166 -0.64267,-2.1103 -4.44288,-2.0317 z m -4.84717,5.5226 c 1.64756,-0.021 2.7432,0.035 2.88978,0.1826 0.29396,0.2926 -0.381,1.4319 -1.49939,2.5294 -1.11786,1.098 -3.2086,2.2283 -4.64688,2.5115 -3.17182,0.6262 -8.7122,-0.8967 -10.32245,-2.8377 -0.96785,-1.166 0.34131,-1.5351 7.37923,-2.0783 2.35294,-0.1818 4.55215,-0.285 6.19971,-0.3075 z m 39.90843,14.2145 c -4.25185,0.2072 -8.66113,1.2748 -12.67539,3.1737 -3.64517,1.7243 -8.35131,3.1454 -10.45607,3.1578 -2.10529,0.016 -5.82163,0.9305 -8.2595,2.0373 -2.77177,1.2578 -7.16809,2.0921 -11.72448,2.2249 -7.07311,0.2063 -7.41733,0.097 -11.6115,-3.692 -3.56182,-3.2184 -4.81066,-3.7743 -7.09719,-3.1631 -1.52638,0.4085 -3.24511,0.6413 -3.81979,0.5178 -4.34789,-0.9356 -23.06134,-1.0073 -26.42579,-0.1014 -7.18343,1.9339 -9.03102,4.1696 -10.56058,12.7752 -1.61898,9.1136 -1.30175,13.9493 0.91493,13.9493 1.1901,0 1.64174,-1.5486 1.8759,-6.4325 l 0.3093,-6.4328 8.05603,0.5482 c 6.08224,0.4146 9.05722,0.1294 12.14438,-1.1636 3.91768,-1.6415 4.17062,-1.6254 6.05234,0.3952 1.08056,1.1594 2.7686,2.1074 3.75285,2.1074 2.00872,0 1.87404,-2.0349 2.47915,37.1182 0.41327,26.6761 0.23891,27.5918 -12.19703,64.1773 -7.44511,21.9033 -13.06327,43.1927 -13.06327,49.5012 0,2.1709 -0.41037,3.9473 -0.90964,3.9473 -2.4974,0 -2.9173,-19.4781 -0.67707,-31.3677 3.19326,-16.9447 6.93896,-34.2889 8.95853,-41.4856 2.76013,-9.8375 2.75272,-19.2326 -0.032,-38.3254 -1.6121,-11.063 -2.16535,-19.1461 -1.92643,-28.2022 0.29607,-11.2525 0.13282,-12.7352 -1.43483,-13.0487 -1.30784,-0.2609 -1.95475,0.6233 -2.47254,3.3829 -0.92154,4.9117 -2.54952,5.8119 -2.56989,1.4211 -0.0349,-8.2399 -4.005,-7.6986 -4.94824,0.6755 -0.40402,3.5782 -0.13123,5.1686 1.0459,6.1034 1.40811,1.1179 1.4306,2.7099 0.18679,13.8102 -4.3815,39.0998 -6.13357,49.0402 -10.30129,58.4634 -2.28414,5.1646 -4.78816,8.3171 -4.78816,6.0272 0,-0.5392 -1.48696,-1.5965 -3.30491,-2.3495 -3.17606,-1.315 -3.4245,-1.2285 -6.35952,2.2254 -7.79595,9.1757 -10.81988,17.8739 -8.02667,23.0934 0.87233,1.6306 0.75486,2.5238 -0.52255,3.9343 -0.90832,1.0038 -1.65259,2.3027 -1.65259,2.8874 0,2.4598 -4.02828,4.7241 -7.1755,4.0325 -5.72188,-1.257 -7.22815,-5.3395 -3.82085,-10.3597 2.07248,-3.0533 2.24341,-3.8534 1.03823,-4.8533 -2.90566,-2.4114 -7.38241,1.0052 -9.31175,7.1067 -1.28931,4.0759 2.96228,11.2453 8.16293,13.7626 2.44766,1.1845 5.59514,2.1508 6.99505,2.1508 4.14549,-0.016 9.00192,-3.6439 10.35923,-7.7579 1.0541,-3.1924 1.6981,-3.7404 4.39473,-3.7404 1.73699,0 4.87654,-0.8123 6.97601,-1.8058 4.31059,-2.0396 12.70396,-10.1949 12.70396,-12.3444 0,-0.7765 -0.9726,-3.0599 -2.16085,-5.0736 l -2.15979,-3.6621 4.18729,-6.9451 c 4.98528,-8.2637 4.85643,-7.7361 7.84225,-32.0172 2.61224,-21.2452 3.30809,-21.1166 4.50321,0.8334 0.53473,9.8209 0.28205,13.1022 -1.61025,20.9109 -1.23375,5.0932 -2.9218,13.0246 -3.75047,17.6254 -0.82868,4.5996 -2.46618,12.8342 -3.63881,18.2978 -2.85142,13.2739 -2.91809,30.2739 -0.15743,40.2315 3.45995,12.4764 7.08157,13.0019 17.82974,2.5892 4.18068,-4.0502 7.35912,-7.6065 7.06332,-7.9028 -0.9697,-0.9697 -7.49856,2.3656 -10.43623,5.3319 l -2.87417,2.9025 v -2.6194 c 0,-4.0294 2.94852,-20.0163 5.17181,-28.0384 3.09166,-11.1565 7.74383,-25.0463 8.37459,-25.0018 0.31274,0.021 1.67323,2.3114 3.02313,5.0876 2.29103,4.7104 2.37702,5.5433 1.30625,12.4455 -0.63103,4.069 -1.14723,18.7833 -1.14723,32.6977 v 25.3021 l -5.7531,-0.594 c -5.01042,-0.5169 -5.89836,-0.3275 -6.86224,1.4732 -1.22978,2.2987 0.54743,24.9198 4.37436,55.6123 0.53711,4.3077 0.99722,8.2928 1.32424,11.4022 1.75181,7.2239 -1.88489,8.0912 -6.67597,11.2514 -3.7375,2.4646 -7.38478,5.2152 -8.10312,6.1129 -2.02301,2.5242 -1.54967,6.1646 1.04457,8.0434 v 0 c 6.09468,4.4098 32.89617,-5.0356 37.12898,-13.086 1.91347,-3.6399 1.38853,-73.5997 -0.57812,-77.0856 -0.72231,-1.2814 -2.83051,-2.7207 -4.6863,-3.2001 l -3.37396,-0.8713 -0.64347,-12.4839 c -0.35348,-6.8664 -0.70617,-20.8108 -0.78422,-30.9887 l -0.14103,-18.5061 6.09309,3.0234 c 8.53361,4.2339 14.81535,5.5909 23.12988,4.9962 5.04005,-0.3607 8.59208,-1.3092 11.97345,-3.1991 l 4.80801,-2.6887 0.0159,23.1899 c 0,12.7548 0.30322,27.0079 0.66623,31.673 l 0.66172,8.4823 -3.79095,0.7123 c -6.85006,1.2848 -7.15275,4.0928 -3.26205,30.4188 6.13595,41.52 7.71975,47.8835 12.76985,51.3213 7.4975,5.1033 28.41809,10.0957 35.18869,8.3963 3.7815,-0.9488 6.35,-5.0864 4.8718,-7.8473 -0.9506,-1.7764 -8.3912,-6.5577 -17.30712,-11.1212 -1.86399,-0.9544 -2.17725,-2.5234 -2.82654,-14.1148 -0.99007,-17.6548 -2.82893,-35.7653 -4.4024,-43.3625 -1.99734,-9.6444 -3.63353,-12.3013 -8.39841,-13.6372 -2.26668,-0.636 -4.24603,-1.592 -4.39922,-2.1243 -0.1524,-0.5326 -0.79957,-10.8487 -1.43537,-22.9251 -0.63632,-12.0764 -1.41499,-25.1018 -1.7309,-28.947 -0.54954,-6.6919 -0.48128,-6.9657 1.60073,-6.4217 3.55203,0.9292 4.04521,2.3685 5.29643,15.5024 2.09073,21.9411 6.74317,34.7507 12.24041,33.7 2.04576,-0.391 2.363,-0.1066 1.94178,1.7367 -0.27675,1.2118 -0.62124,4.3207 -0.76517,6.9091 -0.24792,4.4313 -0.0971,4.7239 2.61064,5.0356 2.53894,0.2923 2.87681,0.7686 2.87681,4.0682 0,6.0018 4.06633,12.7116 13.90173,22.9383 10.9101,11.3435 16.4364,15.4755 19.4299,14.5251 3.429,-1.0874 3.4944,-0.8321 -18.1859,-70.6146 -1.3401,-4.313 -4.6476,-14.6648 -7.3504,-23.0029 -2.7027,-8.3389 -5.6607,-17.8597 -6.5735,-21.159 l -1.65865,-5.9976 3.23815,-3.4123 c 4.4069,-4.6437 6.6075,-9.3329 6.6083,-14.0769 0,-3.6748 0.749,-4.6673 9.9539,-13.2136 5.4739,-5.0813 10.7022,-10.6883 11.6186,-12.4602 2.2635,-4.377 1.3047,-10.4577 -3.1345,-19.8951 -3.3978,-7.2224 -6.2063,-11.3893 -19.8424,-29.419 -3.36,-4.4429 -5.8661,-8.3209 -5.5687,-8.6186 0.2971,-0.2971 -0.1392,-2.4656 -0.9695,-4.8183 -0.87145,-2.4688 -1.1191,-4.6651 -0.58649,-5.198 0.53259,-0.5326 1.20729,0.499 1.59539,2.4418 0.8001,3.9963 2.4175,6.1762 4.5844,6.1762 1.7508,0 1.5071,-2.3799 -1.2697,-12.4053 -1.8936,-6.8352 -3.0369,-8.2965 -8.40524,-10.7386 -3.38217,-1.5383 -7.4758,-2.1918 -11.72765,-1.9846 z m -0.70485,5.6518 c 6.57543,0.1757 14.19701,2.336 14.25469,4.3172 0.0159,0.5747 -1.79811,1.5968 -4.03225,2.2712 -5.9227,1.7886 -14.82645,1.4697 -20.64305,-0.7395 -2.79321,-1.0613 -5.28744,-2.1387 -5.5425,-2.394 -0.96625,-0.9657 6.70269,-2.9387 13.23446,-3.4028 0.87101,-0.065 1.78938,-0.077 2.72865,-0.05 z m -77.24325,1.7444 c 4.74742,-0.1215 8.6442,0.1799 8.6442,0.9797 0,0.5623 -1.07103,1.723 -2.38019,2.5813 -2.84004,1.8606 -24.54963,3.3401 -26.74488,1.8222 -1.83991,-1.2713 -0.77443,-1.8785 6.72968,-3.8333 3.40281,-0.8863 9.00245,-1.4293 13.75119,-1.5499 z m 54.25493,3.0951 c 1.72164,0 1.78355,0.5397 0.37068,3.1813 -0.58896,1.0988 -2.04391,2.5199 -3.23506,3.1581 -1.96585,1.052 -2.09735,0.9348 -1.41684,-1.2819 0.99853,-3.2533 2.52439,-5.0575 4.28122,-5.0575 z m -37.17502,1.1903 c 0.4871,0.1262 0.47943,0.9316 0.18495,2.4699 -0.53473,2.7985 -0.74507,2.8895 -3.83329,1.6793 -1.905,-0.7466 -1.87827,-0.8771 0.49477,-2.54 1.68487,-1.1803 2.66621,-1.7356 3.15357,-1.6092 z m 42.71619,1.1912 c 0.33178,0.1894 3.06652,1.4949 6.07562,2.9025 4.03225,1.8854 5.28506,2.9702 4.76303,4.1261 -0.38867,0.8623 -0.73395,3.6857 -0.76517,6.2733 -0.0519,4.0275 0.24156,4.7051 2.032,4.7051 1.85129,0 2.08756,-0.6871 2.06428,-6.0068 -0.0212,-5.5544 0.13282,-5.9606 2.09073,-5.3608 1.16497,0.3572 2.2225,0.7351 2.35109,0.839 0.1278,0.1046 -0.25823,1.9715 -0.85963,4.1479 -1.23798,4.4847 -0.68183,6.903 1.58697,6.903 1.14909,0 1.62957,-1.5296 1.86267,-5.9285 0.20082,-3.8024 0.81677,-6.0955 1.71476,-6.3916 1.79652,-0.5932 1.2827,7.5166 -1.67534,26.4348 -1.16893,7.4761 -2.44554,16.4478 -2.83607,19.9356 -0.86968,7.7679 -1.20808,8.3129 -5.70838,9.189 -5.79967,1.1303 -7.39087,3.2871 -7.36547,9.9861 0.0159,3.2174 0.6469,8.8323 1.41049,12.478 0.98901,4.7205 1.05807,6.7268 0.23892,6.9705 -0.63156,0.1878 -2.36485,0.6051 -3.85207,0.9281 -2.62176,0.5692 -2.68182,0.7557 -1.94336,6.195 0.86809,6.3997 3.26284,11.6597 5.73907,12.6093 0.93081,0.3579 3.09642,0.65 4.8133,0.65 2.71965,0 3.03001,0.2903 2.40824,2.2495 -0.39264,1.2375 -1.01256,5.4645 -1.37742,9.393 l -0.66278,7.1432 -2.04179,-3.3814 c -6.54103,-10.8344 -8.10313,-13.8305 -10.40712,-19.9506 -5.23293,-13.9031 -11.08525,-49.003 -11.0699,-66.4014 0.0159,-9.2745 1.17289,-12.976 6.77254,-21.5019 5.13132,-7.8129 5.55254,-9.4557 3.11335,-12.1502 -1.32609,-1.4653 -1.38457,-2.2633 -0.34132,-4.553 0.69586,-1.5274 1.53591,-2.622 1.86876,-2.4328 z m -15.3588,1.801 -0.62521,2.8747 c -2.68896,12.3743 -3.10594,18.5346 -1.91902,28.298 0.67759,5.57 1.53749,15.8184 1.91346,22.7745 l 0.68236,12.6476 -3.41471,0.6837 c -4.70561,0.9404 -22.80391,0.8626 -23.30238,-0.1013 -0.60563,-1.1729 1.20703,-52.0941 2.11296,-59.3199 l 0.7837,-6.2568 4.18279,-0.7398 c 2.30029,-0.4067 7.64699,-0.7678 11.8835,-0.8006 z m -13.8975,3.1372 c -2.23653,0 -2.80221,2.6852 -0.72311,3.4316 1.63936,0.5892 4.09416,-1.2605 3.32502,-2.5051 -0.31486,-0.5101 -1.48617,-0.9265 -2.60191,-0.9265 z m 34.16617,0 c -1.55707,0 -4.26746,8.8265 -3.22659,10.5098 0.9599,1.5523 3.33692,1.1617 4.03727,-0.6636 1.2446,-3.2446 0.70168,-9.8462 -0.81068,-9.8462 z m 23.35371,0 c 0.54848,0 1.30228,1.6216 1.67376,3.6031 0.92313,4.921 -0.0352,7.0773 -1.50231,3.3853 -1.43298,-3.6047 -1.51553,-6.9884 -0.17145,-6.9884 z m -37.76715,3.5528 c 0.15081,-0.016 0.31406,0.016 0.48974,0.059 5.36469,1.5793 5.23214,1.3764 2.9255,4.4863 -1.17501,1.5838 -3.11732,4.0545 -4.31588,5.4917 l -2.17832,2.6143 0.65696,-4.7048 c 0.83291,-5.9582 1.36049,-7.846 2.422,-7.9476 z m -52.62721,0.5191 c -1.37081,-0.059 -3.10886,6.7178 -2.27912,8.8821 0.35533,0.9263 1.12315,1.6833 1.70471,1.6833 2.29711,0 2.86676,-10.4664 0.57441,-10.5654 z m 32.60592,5.8034 c -1.33429,-0.1691 -3.04509,1.4377 -2.35585,2.5532 1.0377,1.6788 3.73116,1.4311 3.73116,-0.3432 0,-0.8284 -0.37439,-1.7393 -0.83291,-2.023 -0.16695,-0.1034 -0.35137,-0.1624 -0.5424,-0.187 z m 57.31352,3.2226 4.12458,6.2585 c 2.26858,3.4419 7.29458,10.4939 11.16838,15.6694 6.8791,9.1898 13.4596,21.7511 13.4596,25.6894 0,1.0872 -3.8468,5.7224 -8.595,10.3577 -4.7276,4.6143 -9.0789,8.3621 -9.6705,8.3269 -0.5922,-0.035 -2.0077,-0.9974 -3.1446,-2.1428 -1.61926,-1.6298 -2.89429,-1.9402 -5.88752,-1.4341 l -3.82085,0.6446 -1.08003,-6.1294 c -0.83873,-4.7617 -0.73739,-7.6091 0.45376,-12.7627 0.84217,-3.6494 1.86029,-15.1492 2.26219,-25.5558 z m -59.5974,6.767 c -1.6166,0 -2.07751,1.2343 -0.90011,2.4119 0.83502,0.8353 2.46882,-0.1095 2.46882,-1.4274 0,-0.5413 -0.7059,-0.9845 -1.56871,-0.9845 z m 0.31406,9.4096 c -0.96943,0 -1.13639,3.5343 -0.21087,4.4599 0.75618,0.7564 3.556,-0.2083 3.556,-1.2251 0,-0.9927 -2.31775,-3.2348 -3.34513,-3.2348 z m 1.2229,10.7069 c -1.2401,0.035 -2.40135,1.488 -1.59332,2.7956 0.38709,0.6247 1.11787,1.1361 1.62507,1.1361 1.61502,0 2.37014,-2.2299 1.16364,-3.4364 -0.36036,-0.3609 -0.7829,-0.5072 -1.19539,-0.4953 z m 1.03082,9.7446 c -0.67416,-0.065 -1.38694,0.1892 -1.94363,0.8607 -0.77285,0.9311 -0.73342,1.6865 0.13282,2.5533 1.86664,1.8666 3.94891,1.47 3.94891,-0.7509 0,-1.5283 -1.01468,-2.5496 -2.13757,-2.6631 z m 43.11412,11.9782 c 2.36405,-0.021 2.65695,0.5962 4.52226,9.5388 0.88318,4.2333 1.8333,8.44 2.11375,9.3475 0.36142,1.1708 -0.55721,1.9769 -3.16097,2.776 -2.0193,0.621 -3.89652,0.7665 -4.16984,0.3254 -0.27225,-0.4416 -1.20623,-5.1972 -2.07407,-10.568 -1.65708,-10.2441 -1.38112,-11.3818 2.76887,-11.4197 z m -55.89879,5.2123 c 0.76756,0 1.63354,0.62 1.92511,1.3804 0.29131,0.7596 0.39423,5.8481 0.2286,11.3088 l -0.30189,9.9277 -3.65918,-0.9477 c -2.01242,-0.5213 -3.82694,-1.1129 -4.03278,-1.3148 -0.20506,-0.2018 0.7104,-4.8641 2.0357,-10.361 1.55072,-6.4326 2.90645,-9.9934 3.80444,-9.9934 z m 5.83989,1.8452 c 0.15928,-0.03 0.33761,-0.039 0.52758,0.016 0.75644,0.1559 4.28545,0.5824 7.84119,0.9448 3.55573,0.3625 6.80958,1.1753 7.23185,1.8058 1.36631,2.0402 0.93398,16.3325 -0.50667,16.7775 -2.57281,0.7935 -13.16435,1.4404 -13.76416,0.8406 -0.97393,-0.9745 -0.70802,-6.5363 0.31168,-6.5363 0.50853,0 1.16999,0.9396 1.47109,2.09 0.41354,1.5798 1.42504,2.0905 4.14125,2.0905 6.10156,0 8.64738,-5.0869 6.01293,-12.0153 -0.92975,-2.4448 -1.51871,-2.7085 -5.44592,-2.4215 -3.67745,0.2683 -4.50453,0.7414 -4.99983,2.8578 -0.96547,4.128 -3.12897,3.8939 -3.30597,-0.3583 -0.0868,-2.0603 -0.204,-4.3333 -0.26115,-5.0522 -0.0439,-0.5392 0.26882,-0.9326 0.74613,-1.0295 z m 19.50164,0.2202 c 0.96044,-0.078 2.31907,1.0488 2.73606,2.8995 0.35613,1.5817 1.02288,4.5234 1.48166,6.5353 0.46011,2.0132 1.12845,4.9537 1.48432,6.5354 0.567,2.5175 0.33549,2.8753 -1.85897,2.8753 -2.32013,0 -2.59503,-0.5874 -3.68035,-7.8849 -0.64505,-4.3365 -1.17184,-8.5706 -1.17184,-9.4102 0,-1.0205 0.43312,-1.5025 1.00912,-1.5504 z m -12.71349,7.3705 c 0.31062,0.016 0.73898,0.059 1.29857,0.1346 1.6936,0.239 2.67388,1.1364 2.88819,2.643 0.204,1.4308 -0.44053,2.6921 -1.7272,3.3811 -1.76503,0.9448 -1.97643,0.8064 -1.50839,-0.9816 0.29898,-1.1438 -0.077,-2.8274 -0.83634,-3.742 -0.90382,-1.0893 -1.04458,-1.4542 -0.11457,-1.4351 z m 48.9204,12.7992 c 0.13123,0.1347 -0.54452,2.7077 -1.49913,5.719 -1.68407,5.3075 -1.85526,5.4763 -5.63034,5.4893 -3.26151,0.019 -4.15316,-0.4871 -5.48904,-3.0708 -2.50693,-4.8474 -2.08359,-6.3256 1.81028,-6.3256 1.87219,0 5.01623,-0.4623 6.98711,-1.0272 1.97062,-0.5656 3.69041,-0.9188 3.82112,-0.7847 z m -69.27189,0.8975 3.21866,1.7647 c 2.49872,1.369 5.7957,1.7463 14.72168,1.6891 6.32566,-0.044 13.85279,-0.3902 16.72881,-0.7776 l 5.22843,-0.7051 3.47186,9.6663 c 1.9103,5.316 3.556,10.3714 3.65919,11.2339 0.11007,0.9224 -1.84653,2.5771 -4.74927,4.0175 -12.92833,6.4143 -34.23153,0.8292 -42.37911,-11.1099 l -3.36841,-4.936 1.73382,-5.4214 z m -51.08601,8.237 c 1.49886,0.016 10.00389,12.659 9.28767,13.8184 -0.32465,0.5244 -2.49608,2.3346 -4.82494,4.0216 -2.3286,1.687 -5.01571,3.0679 -5.97165,3.0679 -1.80816,0 -6.31349,-5.2838 -6.31349,-7.4052 0,-1.9957 6.66777,-13.5101 7.82241,-13.5027 z m 119.3927,8.3613 c 1.06415,0 1.39303,2.5099 1.40811,10.7159 0.0299,15.8438 3.88408,40.1363 7.89199,49.7293 0.82497,1.9743 1.49966,3.7126 1.49966,3.8626 0,0.1492 -0.90276,0.5085 -2.00501,0.7964 -1.75154,0.4577 -2.27489,-0.6125 -4.15952,-8.5037 -5.49381,-22.9912 -8.24521,-56.6005 -4.63523,-56.6005 z m 3.48006,4.504 3.8735,0.2342 3.87165,0.236 1.37081,8.1177 c 2.47649,14.6608 5.56079,25.6614 19.29469,68.8313 3.9984,12.5669 7.1226,22.9788 6.9432,23.1373 -0.7011,0.6168 -9.8557,-11.3199 -14.2102,-18.5272 -8.6664,-14.3459 -12.62327,-23.1507 -14.86879,-33.0843 -2.9083,-12.8659 -6.22591,-35.7232 -6.2529,-43.094 z m -42.55823,35.6434 c -11.23526,0.1034 -24.39934,3.2512 -22.74967,5.919 0.39132,0.6342 1.71847,0.9078 2.94932,0.6067 9.00059,-2.1966 17.97314,-2.9777 27.49788,-2.3956 17.04392,1.0433 14.27109,-2.5733 -3.0488,-3.9769 -1.4777,-0.1199 -3.0435,-0.168 -4.64873,-0.1524 z m 52.1978,31.4973 c 0.7911,0.4974 3.83958,5.796 3.90898,7.0339 0.021,0.4316 -1.1904,0.7845 -2.70037,0.7845 -2.51592,0 -2.69134,-0.2722 -2.09206,-3.2686 0.35984,-1.7971 0.6739,-3.796 0.69824,-4.4432 0.0159,-0.1508 0.0741,-0.1778 0.18521,-0.1063 z m -92.76213,9.3866 h 10.11 c 5.56128,0 10.41188,0.3019 10.7815,0.6731 0.3683,0.3696 0.34079,4.7226 -0.059,9.6716 l -0.72892,8.9982 h -8.61695 c -5.61658,0 -8.9924,-0.4551 -9.69884,-1.307 -0.59743,-0.7184 -1.24248,-5.0716 -1.43536,-9.6719 z m 97.65271,1.5687 c 0.5156,0 3.1403,3.5343 5.834,7.8553 2.693,4.3209 7.8973,10.901 11.565,14.6235 3.6679,3.7227 7.1763,7.7165 7.7959,8.8738 2.0021,3.7415 -0.3392,2.1963 -9.149,-6.0359 -10.5362,-9.8462 -16.9828,-18.338 -16.9828,-22.3703 0,-1.6213 0.4212,-2.9464 0.9369,-2.9464 z m -29.79423,2.7626 c 10.01025,-0.075 10.73891,0.3407 11.46705,8.4756 l 0.67521,7.5798 -8.63309,-0.016 c -4.74847,-0.016 -9.28264,-0.4265 -10.07639,-0.9295 -0.79401,-0.5027 -2.01745,-4.2579 -2.71859,-8.3444 -2.67309,-9.5311 0.84984,-7.2953 9.28581,-6.7656 z m -65.94183,18.6652 c 0.095,0 4.22989,0.1477 9.18633,0.3342 l 9.01144,0.34 0.65088,5.4158 c 0.35824,2.9786 0.65273,13.9805 0.66013,24.4469 l 0.0106,13.1649 c 0.005,6.4069 -1.31075,6.595 -6.53071,9.4903 -3.5941,1.9934 -9.55252,4.6043 -13.24161,5.8021 -6.14547,1.9942 -11.59536,2.8781 -10.40394,1.6878 2.29367,-2.2937 18.26763,-13.1035 19.36406,-13.1035 0.77338,0 1.40705,-0.4707 1.40705,-1.0449 0,-0.5754 -0.95594,-1.0464 -2.1246,-1.0464 -1.1684,0 -2.33177,-0.5882 -2.58498,-1.307 -0.69903,-1.9818 -5.85338,-44.164 -5.39909,-44.1802 z m 61.31242,1.1645 c 1.44965,-0.1114 3.73671,-0.059 7.08448,0.141 5.03185,0.3 9.34667,0.7189 9.58771,0.9308 0.6776,0.5988 2.99985,42.3058 2.46936,44.3354 -0.35428,1.3555 1.85552,3.1261 9.02811,7.2306 5.22448,2.9895 9.49778,5.6356 9.49778,5.8795 0,1.2293 -5.3967,-0.031 -25.22065,-5.8853 -6.89848,-2.0373 -6.92838,-2.0614 -7.6581,-6.4834 -2.00369,-12.1552 -6.85191,-44.21 -6.85191,-45.3043 0,-0.4572 0.61251,-0.7327 2.06322,-0.8438 z" transform="translate(15.889328,100.49434) translate(-848.8828,-4490.1674)"/>
</svg>